<svg id="Laag_1" data-name="Laag 1" xmlns="http://www.w3.org/2000/svg" viewBox="0 0 115 59"><title>logotype gjistig</title><path d="M25.88,19h0.36q0,0.26.62,0.26a0.08,0.08,0,0,0,.1-0.08,3,3,0,0,1,2,1.34l0.18,0.62H29l-0.36-.26V21a1.25,1.25,0,0,0,.28.64,0.08,0.08,0,0,0-.1.08,0.19,0.19,0,0,1,.18.18l-0.08.18a0.9,0.9,0,0,1-.54-0.54,0.86,0.86,0,0,1-.46.54q0-.44-0.18-0.44a0.09,0.09,0,0,1,.1-0.1,4.21,4.21,0,0,1-.1-0.9,3.6,3.6,0,0,0-.8.46l-0.1-.18H27v-0.1H27a0.64,0.64,0,0,1-.28.1l0.1,0.18-0.8.36,0.08,0.18-0.54.62a1.18,1.18,0,0,0-.72.72v0.1a1,1,0,0,1,.46-0.18V23L23.9,24.6H23.82V24.24a0.8,0.8,0,0,0,.54-0.72H24.08L24,24H23.54a1.37,1.37,0,0,0-.54.88q0.18,0,.18-0.26h0.18v0.08a1.65,1.65,0,0,1-.36.54h0.1a1.69,1.69,0,0,0,.62-0.62h0.1a7.35,7.35,0,0,1-1.36,2.16V26.58l0.1-.18h-0.1q-0.18,0-.18.36H22V26.48H21.94a1.08,1.08,0,0,1-.18.54h0.08a0.8,0.8,0,0,1,.36-0.08,0.07,0.07,0,0,0,.08.08,0.64,0.64,0,0,0,.1-0.26h0.08v0.36l-0.36.72L22.2,28V28.1q-0.34,0-.54,1.08a0.65,0.65,0,0,1,.1.26,0.4,0.4,0,0,0-.28.28,4.62,4.62,0,0,1,.1.54,0.35,0.35,0,0,1-.18.26l0.08,0.18a1.1,1.1,0,0,1-.26.46,1,1,0,0,1,.18.54L21.22,32v0.18a5.92,5.92,0,0,1,.36,1.7,0.66,0.66,0,0,1,.26.36L22,34.12l0.44,0.08A16,16,0,0,0,26.16,33a3.66,3.66,0,0,1,1.34-.44q0,0.26-.36.26a0.17,0.17,0,0,0,.18.18,1,1,0,0,1,.9-0.36V32.6l-0.1-.18-0.44.08h-0.1V32.24l0.64-.1,0.08,0.18a3.19,3.19,0,0,1,1-.62V31.42l-0.18.1v-0.1a0.17,0.17,0,0,1,.18-0.18,0.17,0.17,0,0,0,.18.18l1-1.16a1,1,0,0,1,.18-0.46H30.38V29.72q0.44,0,.44-0.18v-0.1a7.25,7.25,0,0,0-2.88,2.26,0.08,0.08,0,0,1-.08-0.1l-0.46.1H27l-0.18-.1a0.08,0.08,0,0,1-.08.1,0.66,0.66,0,0,1-.1-0.36l-0.18.08A0.39,0.39,0,0,1,26.06,31H26l-0.28.18v-0.1l-0.18.1a1.13,1.13,0,0,0-.9-0.54V30.34A0.8,0.8,0,0,0,24.54,30l0.26-.44q-0.26,0-.26-0.36a12,12,0,0,1,1.52-1.34v-0.1h0.18V28h0.1a0.15,0.15,0,0,0,.16-0.18H26.34a1.72,1.72,0,0,1,1.24-1,0.09,0.09,0,0,0,.1.1q0-.36.18-0.36H28q0,0.26.18,0.26l0.08-.18a0.75,0.75,0,0,1-.08-0.26,11.53,11.53,0,0,0,1.62-1,11.54,11.54,0,0,0,1.6-.54L31.54,25a0.16,0.16,0,0,1-.18.18,0.76,0.76,0,0,0-.28-0.08V25.4a0.61,0.61,0,0,1,.36.1A3.24,3.24,0,0,1,32.52,25a0.53,0.53,0,0,0,.1.26q-2.06.64-3.14,1.08v0.1h0.08a12.69,12.69,0,0,1,1.8-.64,0.08,0.08,0,0,0,.08.1,0.4,0.4,0,0,1,.28-0.28H31.9a0.08,0.08,0,0,1,.08.1,4.07,4.07,0,0,1,1.36-.54,0.8,0.8,0,0,0,.36.08A0.49,0.49,0,0,1,34.24,25a0.62,0.62,0,0,0,.08.26q-0.66,0-.72.28v0.08a3.22,3.22,0,0,1,1.08-.36V25.14a0.36,0.36,0,0,1-.44-0.36,0.91,0.91,0,0,0,.44.18V24.68H34.5l0.1-.18V24.42l-0.18-.28h0.36A0.15,0.15,0,0,1,34.94,24H35.4v0.08a0.65,0.65,0,0,0-.1.26,0.09,0.09,0,0,1,.1.1,0.08,0.08,0,0,0-.1.08,0.09,0.09,0,0,1,.1.1l0.18-.1h0.18L35.48,25h0.18L36.12,25l0.08,0.18L36,25.22V25.14a0.63,0.63,0,0,1-.26.08l0.08,0.18v0.1H35.66a0.16,0.16,0,0,1-.18-0.18,0.09,0.09,0,0,0,.1-0.1H35.4q0,0.28-.46.28a0.08,0.08,0,0,1-.08-0.1,1,1,0,0,1-.54.1l0.1,0.18v0.08H34.14v0.1a1,1,0,0,1,.46.18,0.08,0.08,0,0,1,.08-0.1,0.09,0.09,0,0,0,.1.1V25.86q0.52,0,.52.26l0.28-.18h0.08V26a0.43,0.43,0,0,1-.26.36H35.22V26.22q-0.44,0-.44.26a0.39,0.39,0,0,1-.28-0.26l-0.18.08H34.24V26.12h-0.1V26.3L34,26.22H33.88V26.4l-0.18-.1H33.52v0.1l0.08,0.18Q33,26.64,33,26.84h0.44l-0.18.28a0.08,0.08,0,0,1,.1.08h-0.1A0.76,0.76,0,0,0,33,27.12a0.75,0.75,0,0,1-.46.54q0-.46-0.72-0.46a0.46,0.46,0,0,0-.36.28H31.8V27.3h0.28v0.08l-0.28.46H32V28H31.8V28.1c0.19,0,.28,0,0.28.1a0.53,0.53,0,0,0-.1.26h0.1l0.8-.1-0.36.36a0.92,0.92,0,0,0,.36.54,0.93,0.93,0,0,1-.26.82,0.16,0.16,0,0,0-.18-0.18h-0.1q-0.16,1-.62,1c0,0.31.09,0.46,0.26,0.46a0.43,0.43,0,0,1-.26.36h-0.1V31.24H31.44l-0.26.18V31.34a0.32,0.32,0,0,1,.36-0.28,0.16,0.16,0,0,0-.18-0.18H31.18A1.42,1.42,0,0,1,30,31.6l-0.1-.18a0.73,0.73,0,0,0,.64-0.54A1.45,1.45,0,0,0,31,30.44V30.16q-0.36,0-.36.54l-0.18-.08-0.08.18L30.46,31a0.07,0.07,0,0,0-.08.08L30.2,31l-0.54.44v0.46h0.08V31.7h0.18v0.18l0.18-.1a0.09,0.09,0,0,0,.1.1l-0.1.18v0.08h0.18l0.18-.08v0.18h0.1V32.06a0.09,0.09,0,0,1-.1-0.1h0.36l0.08,0.36a1,1,0,0,1,.46-0.18v0.1a0.48,0.48,0,0,1-.36.26l-0.44-.18a0.94,0.94,0,0,1-.46.36H30l0.08-.18A0.75,0.75,0,0,1,30,32.24a2.22,2.22,0,0,1-.9.44V32.6l0.08-.18H29.12l-0.18.08a0.8,0.8,0,0,0-.36-0.08,1.86,1.86,0,0,1-.36.52c0.17,0,.26.06,0.26,0.18a0.61,0.61,0,0,0-.54.28h0.28l0.18-.1a0.08,0.08,0,0,0,.08.1c0-.13.15-0.23,0.46-0.28a0.53,0.53,0,0,0,.26.1L29.3,33l-0.1-.18h0.18V33h0.28c0-.19.06-0.28,0.18-0.28v0.18a1.36,1.36,0,0,1-1,.54,2.32,2.32,0,0,1-.8.64l-0.1.18h0.18l0.64-.36h0.08l-0.26.36a0.07,0.07,0,0,1,.08.08l-0.18.1V34.3a0.17,0.17,0,0,0-.18.18h0.18v0.08l-0.18.28h0.1a0.67,0.67,0,0,1,.36-0.1v0.18a6,6,0,0,0-.72.18l0.08,0.18a0.75,0.75,0,0,0-.08.28,0.07,0.07,0,0,1,.08.08,0.08,0.08,0,0,0-.08.1l-0.18-.1-0.18.1a0.67,0.67,0,0,0-.36-0.1q0,0.46-1.16.46l-0.28.18v-0.1a1.08,1.08,0,0,1-.54.18l0.28,0.36h-0.1a0.81,0.81,0,0,1-.44-0.26,2.29,2.29,0,0,0-.72.36,5,5,0,0,0-1-.28,0.92,0.92,0,0,1-.44.18l-1-.54a0.09,0.09,0,0,1-.1.1l-1-.54v-0.1a0.66,0.66,0,0,0-.36.1,1.8,1.8,0,0,1-1-.9l-0.36-.36v0.18H19a0.66,0.66,0,0,0-.26-0.46V34H19a0.87,0.87,0,0,0-.62-0.54l0.08-.18A0.62,0.62,0,0,1,18.34,33h-0.1V33.3H18.16l-0.1-.44v-0.1h0.1v0.18h0.08V32.68a0.75,0.75,0,0,1-.08-0.26h-0.1v0.26q-0.2,0-.26-0.44h0.08l0.18,0.08V31.7q0-1.44.28-1.44l0.08,0.18v0.08a0.16,0.16,0,0,1-.18.18,0.67,0.67,0,0,1,.1.36,1.07,1.07,0,0,0,.36-1,0.08,0.08,0,0,0,.08-0.1L18.7,29.8A16.6,16.6,0,0,1,20,25.86v0.08a5.65,5.65,0,0,1-.44,1.62,0.17,0.17,0,0,0-.18.18V28q0.18,0,.18.34c-0.07,0-.1.06-0.1,0.18H19.42V28.36a0.62,0.62,0,0,0,.08-0.26H19.32a0.8,0.8,0,0,1-.08.36v0.26h-0.1a0.46,0.46,0,0,0,.36.28V28.82h0.18v0.36l-0.18-.1H19.42v0.18l0.18-.08v0.18q-0.28,0-.28.18v0.08h0.1l0.18-.08v0.18l-0.1.18a0.54,0.54,0,0,0-.26-0.1V29.36l0.08-.18-0.18-.1A1,1,0,0,1,19,30l0.1,0.18v0.28l-0.1.18a0.8,0.8,0,0,1,.36.08,0.53,0.53,0,0,0,.1-0.26H19.5V31h0.1a0.64,0.64,0,0,1,.18-0.36V30.44H19.6V30.26q0-.18.26-0.18l-0.08-.18a0.08,0.08,0,0,1,.08-0.1l-0.18-.36a9.43,9.43,0,0,0,.9-2.14,0.08,0.08,0,0,1-.08-0.1,0.07,0.07,0,0,0,.08-0.08H20.5a0.76,0.76,0,0,1-.28.08,0.46,0.46,0,0,1,.28-0.36,0.17,0.17,0,0,0,.18.18,0.78,0.78,0,0,1,.18-0.54V26.4l-0.18.08h-0.1c0-.13.15-0.22,0.46-0.26V26H20.86A0.17,0.17,0,0,1,21,25.86a0.07,0.07,0,0,0,.08.08,1,1,0,0,0,.28-0.54,0.08,0.08,0,0,1-.1-0.08,0.88,0.88,0,0,0,.54-0.72V24.5H21.76c0,0.19-.06.28-0.18,0.28V24.5q0-.18.26-0.18V24.14l-0.18.1V24.06a2.42,2.42,0,0,0,.8-0.8h0.18L22.46,23l0.18-.08h0.1v0.26h0.08a1.14,1.14,0,0,1,.82-1.08,1.24,1.24,0,0,1,.8-0.72,2.9,2.9,0,0,1,.9-0.8v-0.1a0.71,0.71,0,0,1-.44.1v-0.1a1.66,1.66,0,0,0-.54.36L24.44,21v0.1H24.26V20.92H24.08v0.36l-0.54.26a0.07,0.07,0,0,0-.08-0.08,1.25,1.25,0,0,0-.72,1h-0.1V22.08l0.18-.36a0.07,0.07,0,0,1-.08-0.08l0.18-.1v0.1l0.36-.18-0.1-.18v-0.1a1.9,1.9,0,0,1,.64-0.54H24l-0.18.28a0.46,0.46,0,0,0,.36-0.28H24a0.17,0.17,0,0,1,.18-0.18h0.26a0.62,0.62,0,0,1-.08-0.26l0.18,0.08h0.08V20H24.9l0.18,0.08a1.1,1.1,0,0,1,1-.44L26,19.48V19.4h0.18V19.3H25.88l-0.54.1A0.92,0.92,0,0,1,25.88,19ZM18.24,28.2h0.18l-0.08.62H18.16Zm0,1.78h0.18v0.18H18.24V30Zm0.1,1.26v0.1a1,1,0,0,1,.18.54,0.16,0.16,0,0,0,.18-0.18,0.51,0.51,0,0,0-.28-0.46H18.34Zm0.26-2.16v0.36H18.42V29.26A0.19,0.19,0,0,1,18.6,29.08ZM18.52,27.3H18.7v0.18H18.52V27.3Zm0.08,1.42h0.18v0.1H18.6v-0.1Zm0.36-1V28H18.78v-0.1A0.19,0.19,0,0,1,19,27.74Zm0.1-2h0.18v0.18a0.78,0.78,0,0,0-.18.46H18.88V26.22A0.72,0.72,0,0,0,19.06,25.76ZM19,27.38h0.18v0.18H19V27.38Zm0.46,2.78H19.5v0.1l-0.36.08C19.14,30.22,19.23,30.16,19.42,30.16ZM19.5,25v0.18a0.16,0.16,0,0,1-.18.18V25.14A0.19,0.19,0,0,1,19.5,25Zm0-.18h0.1V25H19.5V24.78Zm0,6.28v0.28h0.1V31.06H19.5ZM20,26.66h0.26a0.16,0.16,0,0,1-.18.18ZM20.58,25h0.1l0.08,0.44H20.58l0.1,0.18L20,25.76V25.58a0.29,0.29,0,0,0,.28-0.36l0.18,0.1A0.79,0.79,0,0,0,20.58,25Zm-0.36,1.26H20.4V26.4H20.22V26.22Zm0.1,3.32-0.1.44,0.18,0.1V30a0.62,0.62,0,0,1-.08-0.26,0.16,0.16,0,0,0,.18-0.18H20.32Zm0-4v0.08H20.5V25.5H20.32Zm0.08,0.44h0.1v0.18H20.4V25.94Zm0,3.14v0.18h0.18a0.66,0.66,0,0,1,.1-0.36h-0.1A0.19,0.19,0,0,0,20.4,29.08Zm0.28-4.94h0.18V24.6c-0.07,0-.1.06-0.1,0.18H20.5v-0.1A0.78,0.78,0,0,0,20.68,24.14Zm0.08,3.42h0.36l0.1-.36h-0.1A0.62,0.62,0,0,0,20.76,27.56Zm0.18-2.88h0.18v0.1a0.16,0.16,0,0,1-.18.18V24.68ZM21,29.44l-0.1.46V30H21l0.08-.36V29.44H21Zm-0.1.64v0.08a0.19,0.19,0,0,0,.18.18V30.26A0.16,0.16,0,0,0,20.94,30.08Zm0.82-7h0.18a2.71,2.71,0,0,1-.54,1.16,0.64,0.64,0,0,0-.1.26H21.22A0.16,0.16,0,0,1,21,24.32V24.24A2.22,2.22,0,0,0,21.76,23.08ZM21,26.94h0.18V26.76A0.17,0.17,0,0,0,21,26.94Zm0,2,0.08,0.46h0.1a1.52,1.52,0,0,1,.18-0.54,0.09,0.09,0,0,1-.1-0.1A0.35,0.35,0,0,0,21,28.9Zm0.08-6.64h0.1v0.18h-0.1V22.26Zm0.1,4.32v0.08a0.16,0.16,0,0,0,.18-0.18V26.4A0.17,0.17,0,0,0,21.22,26.58Zm0.72-5a2.34,2.34,0,0,1-.54.64H21.3v-0.1A0.76,0.76,0,0,1,21.94,21.54ZM21.58,27.3l-0.1.44v0.1a0.08,0.08,0,0,0,.1.08l-0.28.44,0.18,0.1h0.1l0.44-.8H21.84l0.1-.18A0.64,0.64,0,0,1,21.58,27.3Zm0.18-4.4v0.18H21.58A0.17,0.17,0,0,1,21.76,22.9Zm-0.18,2.68a0.17,0.17,0,0,0,.18.18V25.58H21.58Zm0,0.28v0.08h0.18V25.86H21.58Zm0.18,1.8h0.08v0.26H21.76a0.16,0.16,0,0,1-.18-0.18Zm-0.1-1.26v0.18h0.1V26.4h-0.1Zm0.1,0.8v0.1h0.18V27.2H21.76Zm0.08-2.06v0.08h0.1a0.62,0.62,0,0,1,.26-0.08V25H22A0.17,0.17,0,0,0,21.84,25.14Zm0,0.36v0.18h0.1V25.5h-0.1Zm0.26-1.44v0.08h0.1a0.56,0.56,0,0,1,.18-0.34V23.7A0.46,0.46,0,0,0,22.1,24.06Zm0,2.16v0.26h0.1V26.22H22.1Zm0.18-1.72a0.19,0.19,0,0,0,.18.18V24.32A0.19,0.19,0,0,0,22.28,24.5Zm0,0.28V25a0.16,0.16,0,0,0,.18-0.18H22.28Zm0.54,0.08a3,3,0,0,1-.54,1v0.26h0.1A4.67,4.67,0,0,1,22.92,25v-0.1h-0.1ZM22.56,21.1h0.08a0.39,0.39,0,0,1-.26.26V21.28A0.17,0.17,0,0,1,22.56,21.1Zm0,1.34h0.08v0.18H22.56V22.44Zm0.18,1.26a0.76,0.76,0,0,1,.08.28h0.1a0.57,0.57,0,0,1,.18-0.36v-0.1Zm0,1.88v0.28a0.16,0.16,0,0,0,.18-0.18v-0.1H22.74Zm0.18-.26V25.5a0.16,0.16,0,0,0,.18-0.18H22.92Zm0,11.14v0.08h0.26V36.46H22.92Zm0.36-16h0.08a0.16,0.16,0,0,1-.18.18H23.1A0.17,0.17,0,0,1,23.28,20.46Zm0.44-.36h0.1v0.1q0,0.2-.46.26A0.62,0.62,0,0,1,23.72,20.1Zm-0.36,1.54h0.18v0.18H23.36V21.64Zm0,2V23.7h0.18V23.62H23.36Zm0.28,0.52h0.08v0.18l-0.36.1A0.45,0.45,0,0,1,23.64,24.14Zm0-.34,0.18,0.08,0.08-.18V23.52A0.41,0.41,0,0,0,23.64,23.8Zm0.08-2.62v0.18h0.1V21.18h-0.1Zm0.46-1.26h0.08a0.16,0.16,0,0,1-.18.18H24A0.17,0.17,0,0,1,24.18,19.92Zm-0.1,3.24L24,23.34h0.08l0.1-.18h-0.1Zm1.08-3.76v0.26l-0.9.26V19.76ZM24.36,23h0.18V22.8A0.19,0.19,0,0,0,24.36,23Zm0.36-.44v0.18H24.8V22.54H24.72ZM24.9,30v0.18a0.79,0.79,0,0,1,.36-0.08V29.9A0.79,0.79,0,0,1,24.9,30Zm0.18,6.66a0.17,0.17,0,0,1,.18.18l-0.18.08V36.64Zm1.78-15.1a6.41,6.41,0,0,1-1.42,1.18h-0.1A2.85,2.85,0,0,1,26.86,21.54Zm-1.34-2.06H25.8v0.18H25.52V19.48Zm0.18,11v0.08a0.64,0.64,0,0,1,.28.1V30.44H25.7Zm0.18-2.24v0.08h0.18V28.2H25.88Zm0.18,2.24v0.08h0.18V30.44H26.06Zm0.1,0.36H26.6V30.7a0.16,0.16,0,0,0-.18-0.18A0.41,0.41,0,0,0,26.16,30.8Zm0.34-2.6a0.59,0.59,0,0,1-.16.34h0.08a0.79,0.79,0,0,1,.36-0.08v-0.1a0.15,0.15,0,0,0-.18-0.16H26.5Zm0.1-9.26H27v0.28a0.66,0.66,0,0,0-.36-0.1V18.94Zm0,14.46a0.17,0.17,0,0,0,.18.18V33.4H26.6Zm0.26-5.84v0.1h0.28V27.48A0.76,0.76,0,0,1,26.86,27.56Zm0,6.64a0.46,0.46,0,0,0,.28-0.36l0.18,0.1H27.4V33.76A0.44,0.44,0,0,0,26.86,34.2ZM27,28.1h0.1a0.16,0.16,0,0,0,.18-0.18h-0.1A0.17,0.17,0,0,0,27,28.1Zm0.46-.9v0.1h0.26l0.1-.18h-0.1A0.62,0.62,0,0,1,27.5,27.2Zm0,1.34h0.08a0.16,0.16,0,0,0,.18-0.18H27.68A0.19,0.19,0,0,0,27.5,28.54Zm0,5.12h0.18V33.48A0.19,0.19,0,0,0,27.5,33.66Zm0.08-6v0.18a0.64,0.64,0,0,1,.28-0.1V27.66H27.58Zm0,1.6v0.1h0.18v-0.1H27.58Zm0.54-1.88v0.18h0.1V27.38h-0.1Zm0.28-.62v0.08h0.18V26.76H28.4Zm0.08,1.08V28.1h0.28a1,1,0,0,1,.54-0.36V27.56H29A0.85,0.85,0,0,1,28.48,27.84Zm0,5h0.18a0.16,0.16,0,0,1-.18.18V32.86Zm0.36-1.44V31.6a0.16,0.16,0,0,1-.18.18H28.58A0.43,0.43,0,0,1,28.84,31.42Zm-0.18-5v0.08h0.28V26.4H28.66Zm0,0.72V27.3a0.16,0.16,0,0,0,.18-0.18H28.66Zm0.18,5.38,0.1,0.18-0.18.08h-0.1V32.68A0.19,0.19,0,0,1,28.84,32.5Zm0.46,1.88v0.1a0.51,0.51,0,0,1-.54.26A0.58,0.58,0,0,1,29.3,34.38Zm-0.46-7.8v0.08h0.1a0.62,0.62,0,0,1,.26-0.08v-0.1H29.12A0.64,0.64,0,0,1,28.84,26.58Zm0,3.22V30H29V29.8H28.84ZM29,28.46v0.08H29.3V28.46H29Zm0,3.6h0.1a0.16,0.16,0,0,0,.18-0.18H29.2A0.17,0.17,0,0,0,29,32.06Zm0.1-4.94H29.3V26.94A0.17,0.17,0,0,0,29.12,27.12Zm0,6.46H29.2v0.18H29.12V33.58Zm0.18,0.36h0.08v0.18H29.12A0.17,0.17,0,0,1,29.3,33.94Zm-0.1-12h0.18v0.18H29.2V21.9Zm0.1,7.9v0.1a0.16,0.16,0,0,0,.18-0.18v-0.1A0.19,0.19,0,0,0,29.3,29.8Zm0.08-2.5v0.08h0.18V27.3H29.38Zm1.18,1.52a0.53,0.53,0,0,1-.54.44,0.08,0.08,0,0,0-.1-0.08q0,0.26-.36.26v0.28h0.1A3.18,3.18,0,0,0,30.82,29Zm-0.82,4.4h0.1l0.44,0.08v0.1a1,1,0,0,0-.54.26H29.66a0.17,0.17,0,0,1,.18-0.18l-0.1-.18V33.22Zm-0.08.9h0.18V34.2H29.66V34.12Zm0.08-6.56v0.1h0.18v-0.1H29.74ZM29.92,27h0.36V26.84H30.1A0.19,0.19,0,0,0,29.92,27ZM30,27.38H30.2V27.2A0.19,0.19,0,0,0,30,27.38Zm0.08,0.28v0.08a0.17,0.17,0,0,0,.18.18,0.17,0.17,0,0,1,.18-0.18,0.09,0.09,0,0,1,.1.1,2.14,2.14,0,0,1,.7-0.18v-0.1H31.08l-0.18.1a0.53,0.53,0,0,0-.26-0.1,0.65,0.65,0,0,1-.26.1v-0.1A0.64,0.64,0,0,1,30.1,27.66Zm0.62,3.14v0.08H30.9V30.8H30.72Zm0.46-4.22h0.08q0.54-.1.54-0.28V26.22A0.7,0.7,0,0,0,31.18,26.58Zm0.08-.46v0.1h0.18v-0.1H31.26Zm0.64,5.94h0.18v0.08a0.16,0.16,0,0,1-.18.18,0.08,0.08,0,0,0-.1-0.08,0.16,0.16,0,0,1-.18.18H31.54A0.62,0.62,0,0,1,31.9,32.06Zm-0.18-7.2H31.9a0.16,0.16,0,0,1-.18.18V24.86Zm0,0.82v0.18H31.8V25.68H31.72Zm0.9,0.44c0,0.15-.18.24-0.54,0.28q0,0.18-.36.18v0.18q0.54-.1.54-0.28a0.08,0.08,0,0,1,.08.1,0.79,0.79,0,0,0,.72-0.28V26.22l-0.18.08H32.8V26.12H32.62Zm-0.9,4v0.18H31.8V30.16H31.72Zm0.18-4.3v0.08h0.18l0.08-.18A0.53,0.53,0,0,1,31.9,25.86Zm0.18,1.62h0.18v0.18A0.16,0.16,0,0,1,32.08,27.48Zm0.18,4.66h0.18v0.18H32.08A0.17,0.17,0,0,1,32.26,32.14Zm0.36-2.06,0.08,0.18a1.9,1.9,0,0,1-.54.72V30.8A1.78,1.78,0,0,1,32.62,30.08Zm-0.28-4.4v0.18a0.88,0.88,0,0,0,.82-0.28V25.5Zm1.72-1.44h0.08v0.18l-0.44.08c0,0.12.12,0.18,0.36,0.18v0.18L33.7,25v-0.1a2.07,2.07,0,0,1-1.08.18,0.53,0.53,0,0,1-.1-0.26q0.36,0.06.36,0.18l0.46-.18a0.07,0.07,0,0,0,.08.08l0.1-.18V24.6c-0.24,0-.36-0.06-0.36-0.18v-0.1Zm-1.18,6.92v0.18H32.7A0.19,0.19,0,0,1,32.88,31.16ZM32.8,27.84H33v0.08H32.8V27.84Zm0.44,2.86v0.18H33V30.8A0.64,0.64,0,0,0,33.24,30.7Zm0-4.58-0.08.18h0.26A0.16,0.16,0,0,0,33.24,26.12Zm0.28,1.44v0.18l-0.36.1V27.66Zm-0.36.64h0.18v0.16A0.15,0.15,0,0,1,33.16,28.2Zm0.08,2h0.18v0.18a0.16,0.16,0,0,1-.18.18V30.16Zm0.1-4.58v0.36L34,26.12l0.1-.18a0.62,0.62,0,0,0-.54-0.36V25.4A0.19,0.19,0,0,0,33.34,25.58Zm0.18,1.08h0.26v0.18H33.52V26.66Zm0.8,0.18V27l-0.62.1V26.94A2.36,2.36,0,0,0,34.32,26.84ZM34.14,25.5v0.18h0.1V25.5h-0.1Zm0.54-1v0.1h0.18V24.5H34.68Zm0.18,0.36V25H35v-0.1H34.86ZM34.94,25v0.1h0.28V25H34.94Zm0.82-.44a0.92,0.92,0,0,0,.44.08v0.18H35.76V24.6Zm0,1.08h0.18v0.08H35.76V25.68Zm0.08,0.26H36a0.76,0.76,0,0,0-.08.28h-0.1V25.94Zm0.28-2.24H36.2a0.17,0.17,0,0,1,.18.18H36.12V23.7Zm0.08,2.16h0.18V26A0.16,0.16,0,0,1,36.2,25.86Zm0.1-.72h0.36V25.4h-0.1a0.63,0.63,0,0,0-.26-0.08V25.14Zm0.26,0.72h0.18v0.08H36.56V25.86Zm0.82-1.62v0.18a0.24,0.24,0,0,0-.28.26H37a0.46,0.46,0,0,1-.28-0.36A3,3,0,0,0,37.38,24.24Zm-0.46,1.62V26H36.74A0.19,0.19,0,0,1,36.92,25.86Zm0.46-.36h0.08a0.76,0.76,0,0,0-.08.26H37.2V25.68A0.17,0.17,0,0,1,37.38,25.5Zm-0.18.36h0.08V26H37.2V25.86Zm0.18-.9h0.26v0.18H37.38V25Zm0.54,0.62a0.08,0.08,0,0,1,.08.1l0.64-.1H39v0.18H38.82l-0.18-.08a0.08,0.08,0,0,1-.1.08,0.07,0.07,0,0,0-.08-0.08v0.18l-0.9.08V25.86A0.6,0.6,0,0,1,37.92,25.58ZM38,24.86L38.18,25a0.64,0.64,0,0,1,.28-0.1,0.08,0.08,0,0,0,.08.1,0.09,0.09,0,0,1,.1-0.1L38.72,25l-0.9.1A0.38,0.38,0,0,1,38,24.86Zm0.46-.44h0.08V24.6H38.46V24.42Zm1.06,1.16h0.1v0.18h-0.1V25.58Zm0.1-1.26h0.26v0.1H39.62v-0.1Z"/><path d="M36.9,24.22h0a0.05,0.05,0,0,1,.06.06l0.4-.1,0.24,0.14,0.24-.18a1.06,1.06,0,0,0,.92.48l0,0.16-0.08.16H38.8a0.67,0.67,0,0,1,.32-0.12V24.9l-0.06.18h0q0.14,0,.18.46l0.16-.1v0.08a0.39,0.39,0,0,1-.22.34L39,25.8v0.08l0.12,0.38,0.3-.18,0,0.16v0q0,0.14-.3.16V26.5h0.16l0,0.16-0.4.1,0.1,0.16a0.42,0.42,0,0,0-.3.26l0,0.24,0.16,0q-0.08.86-.08,0.9l0.16,0a0.16,0.16,0,0,1-.14.18,0.1,0.1,0,0,0-.1-0.08v0.06a1.84,1.84,0,0,1-.1.52H38.6l0-.16-0.08,0,0,0.32h0a0.14,0.14,0,0,1,.14.14l0.16-.1,0,0.24H38.8l-0.18-.06,0,0.72-0.08,0L38.36,30l0,0.58,0,0.32,0.16,0,0,0.8,0,0.08-0.16,0,0-.08q0-.08,0-0.64l0-.08H38.28L38,35.44H37.94L38,35.6v0.08q-0.12,0-.12.26v0.14l-0.16,0,0-.16,0.08-.16-0.24,0a0.85,0.85,0,0,1,.1.24,0.94,0.94,0,0,1-.18.64,0.07,0.07,0,0,0,.08.08l0,0.8,0,0.16h0.08l0-.16,0.16,0c0,0.15,0,.27,0,0.38V38.1h0q-0.14,0-.18-0.3l-0.16,0,0,0.4,0.12,0.32a0.83,0.83,0,0,1-.32.1,0.16,0.16,0,0,0,.16.14h0v0a0.05,0.05,0,0,1,.06-0.06l0,0.08,0.14-.1h0.08l0,0.08v0a0.63,0.63,0,0,1-.2.46,0.85,0.85,0,0,1,.1.24l-0.18-.08-0.16,0,0,0.08,0.24,0v0.08a1.42,1.42,0,0,1-1.3,1.64q-0.62.06-.62,0.22a0.09,0.09,0,0,1-.1-0.08l-0.38.12H35a0.09,0.09,0,0,1-.1-0.08l-0.14.1H34.62a0.72,0.72,0,0,1-.68-0.34l-0.14.1q-4.28-1.2-4.34-1.8l0.06-.16a0.07,0.07,0,0,1-.08-0.08,0.12,0.12,0,0,0,.14-0.12v0A0.07,0.07,0,0,1,29.5,39a0.14,0.14,0,0,0,.14-0.14v0h0a0.05,0.05,0,0,1-.06-0.06h0.1a0.05,0.05,0,0,1,.06.06l0.16-.1a10.25,10.25,0,0,1,3.46,1.16,0.87,0.87,0,0,1,.48-0.12,0.07,0.07,0,0,0-.08-0.08,0.41,0.41,0,0,1,.2-0.34,0.09,0.09,0,0,0,.1.08l0.12-.34,0-.24a0.14,0.14,0,0,0,.14-0.14v0a1.34,1.34,0,0,1-.1-0.24l0.18,0.06,0-.16-0.1-.14,0.16,0,0-.4a0.59,0.59,0,0,1,.26-0.5,0.54,0.54,0,0,0-.1-0.32v-0.1q0-.28.06-1a0.81,0.81,0,0,1-.1-0.32l0.16-.1a0.08,0.08,0,0,0-.08-0.06h0a4.77,4.77,0,0,1,.2-1.54l-0.1-.16,0.14-.26-0.16-.06a15.15,15.15,0,0,1,.14-2l-0.1-.16,0.14-.32a0.07,0.07,0,0,1-.08-0.08,0.14,0.14,0,0,0,.14-0.14v0l-0.12-.32a3.8,3.8,0,0,1,.16-1,0.07,0.07,0,0,0-.08-0.08V29.1A0.94,0.94,0,0,1,35,28.56a1.3,1.3,0,0,1-.1-0.24,0.14,0.14,0,0,0,.14-0.14v0L35,28a15.14,15.14,0,0,1,1.08-3.32l0.28-.34h0.08q0,0.22.1,0.22A0.6,0.6,0,0,0,36.9,24.22ZM34.8,39.08l0,0.24H34.9l0-.24H34.8Zm0,2.1,0,0.16,0.32,0A0.14,0.14,0,0,0,35,41.16h0Zm0-2.34,0,0.16H35l0-.16H34.86ZM35,38.26l0.18,0.24-0.24,0,0,0.24a0.63,0.63,0,0,1,.38-0.2,0.81,0.81,0,0,1-.1-0.32Zm0.14-.16,0.08,0,0.06-.32a0.18,0.18,0,0,0-.14.22V38.1Zm0.18-1.78a0.76,0.76,0,0,1-.06.24v0.08h0.08a0.78,0.78,0,0,1,.06-0.26V36.3Zm0-1.54,0,0.4h0.08l0-.4H35.32Zm0,1.06,0,0.22h0.08l0-.24Zm0.06-3,0,0.48,0.08,0,0-.48Zm0-.58,0,0.32h0.08l0-.32H35.42Zm0,1.22,0,0.16,0.08,0,0-.16Zm0-3.3,0,0.24,0.08,0,0-.24Zm0.06-.4,0,0.24a0.14,0.14,0,0,0,.14-0.14v0Zm0.12,8.08a0.75,0.75,0,0,1,0,.18,2.59,2.59,0,0,1-.1.64l0,0.32h0.08V38.84a3.71,3.71,0,0,1,.14-1H35.66Zm-0.08,1.86,0.1,0.16a0.44,0.44,0,0,1,.24-0.1l0-.08Zm0-10.84v0.16H35.7V28.9H35.62Zm0.08,7.46,0,0.4h0.08l0.14-.1,0,0.08-0.08.18,0,0.16,0.08,0,0-.4a0.07,0.07,0,0,1-.08-0.08H36a0.37,0.37,0,0,0-.26-0.22H35.7Zm0-1.52,0,0.16,0.08,0,0-.16Zm0,2.32v0.12a0.79,0.79,0,0,1,0,.28v0.08H35.8l0.12-.5Zm0.06-1.22,0,0.24h0.08A0.77,0.77,0,0,1,36,35.94H35.82ZM36,35.62l-0.08.16,0,0.08H36v0a0.14,0.14,0,0,1,.14-0.14V35.6Zm0-.24v0.16l0.08,0V35.38H35.94Zm0.08,3,0,0.08,0.16,0,0-.08Zm0,0.16,0,0.16h0.08l0-.16H36Zm0.1-12.94-0.06.32q0.14,0,.14-0.2V25.56H36.14Zm0,11.48,0,0.16,0.16,0A0.16,0.16,0,0,0,36.16,37Zm0.12,0.56,0,0.24,0.08,0,0-.24Zm2.18-18.94,0.64-.06h0.1a0.35,0.35,0,0,1,.42.28,0.07,0.07,0,0,1-.08.08l0.12,0.4,0.06,0.8v0a0.12,0.12,0,0,1-.14.12,1.34,1.34,0,0,1,.1.24h0.08c0-.21.07-0.33,0.2-0.34l0,0.08-0.28.58a0.07,0.07,0,0,1,.08.08,0.94,0.94,0,0,1-.22.1l0,0.16h0a0.17,0.17,0,0,1,.2.14,0.45,0.45,0,0,1-.46.28l0,0.08H39.5c0.13,0,.2,0,0.2.12l-0.14.1H39.48l0-.16-0.16,0v0.08L39.4,22H39.32l-0.26-.14A0.05,0.05,0,0,0,39,22v0a1.46,1.46,0,0,1-.74-0.1,0.08,0.08,0,0,0-.06.08v0H38q-1.34,0-1.44-.92V20.84a2,2,0,0,1,1-1.78,0.81,0.81,0,0,0,.32.06V19.2a0.65,0.65,0,0,1,0,.24v0.08l0.08,0a1.66,1.66,0,0,1,.66-0.6l-0.08-.16ZM36.6,34.84l0,0.16,0.08,0,0-.14H36.6ZM36.72,37v0.16l0.16,0A0.12,0.12,0,0,0,36.76,37h0Zm0-1.62,0,0.16h0.08l0-.16H36.74Zm0.14-14.74v0.08l0.16,0V20.62Zm0.06,16.18L37,37,37,37l0-.16Zm0.14,2.64v0a0.47,0.47,0,0,1-.06.2l0,0.08h0.08v0a0.5,0.5,0,0,1,.06-0.22l0-.08Zm0-5.86,0,0.16,0.16,0,0-.16Zm0-2.58a0.16,0.16,0,0,0,.16.14h0l0-.16Zm0,0.88V32h0.16V31.9H37.08Zm0,2.26,0,0.48v0.08l0.08,0,0-.4V34.14Zm0,5.78,0.1,0.14-0.14.26,0,0.08,0.06,0a1.54,1.54,0,0,0,.2-0.6v0Zm0-7.64,0,0.24h0.08l0-.24H37.12Zm0.18,5,0,0.16a0.12,0.12,0,0,0,.14-0.12v0H37.3Zm0.4,0.78v0.16H37.54A0.15,0.15,0,0,1,37.7,38.12Zm-0.1-11.4,0,0.16h0.06V26.72H37.6Zm0.1,8.74,0,0.16H37.8V35.54c0-.11,0-0.16.06-0.16a0.07,0.07,0,0,0-.08-0.08A1.35,1.35,0,0,1,38,34.56h0q-0.14,0-.16-0.22a0.67,0.67,0,0,0,0-.2V34.08a0.68,0.68,0,0,0-.16.66Q37.66,35,37.7,35.46Zm0,1.46,0.16,0,0,0.4-0.16,0V37.24a0.09,0.09,0,0,1,.08-0.1L37.68,37V36.92Zm0.08-4.6a0.78,0.78,0,0,1-.06.26l0.24,0V32.48A0.16,0.16,0,0,0,37.76,32.32Zm0,0.9v0.16a0.94,0.94,0,0,1,0,.32l0.16,0,0-.48Zm0-.58,0,0.5a0.18,0.18,0,0,0,.14-0.22v0l0-.24H37.78Zm0.08-2V30.8l0.08,0V30.62Zm0,0.4,0,0.08,0.16,0L38,31Zm0,3.12,0,0.16H38V34.16H37.92Zm0.34-.58,0.16,0,0,0.24H38.28Zm0-.58a0.18,0.18,0,0,1,.18.16v0.08H38.32Zm0-5.3,0,0.08,0.14,0V27.68Zm0.08,1.84v0.08a0.53,0.53,0,0,1-.06.24H38.5l0-.32H38.4Zm0,3.22h0.08l0,0.16H38.38Zm0-13.22,0.3-.26,0.16,0.06V19.18A0.14,0.14,0,0,0,38.7,19h0a0.38,0.38,0,0,0-.28.42v0.08Zm0,9.84,0,0.08h0.16l0-.08H38.38Zm0.18-.82,0,0.16h0.08l0-.16H38.56Zm0,2.82,0.16,0,0,0.32v0a0.14,0.14,0,0,1-.14.14l0-.16a0.09,0.09,0,0,1,.08-0.1l-0.1-.14V31.38Zm0-.56,0.16,0V31L38.6,31V30.82ZM38.66,28l0,0.16,0.08,0,0-.16ZM39,18.76l0,0.42,0.14-.1h0q0.14,0,.18.3h0.08V19.32q0-.1.06-0.1A0.72,0.72,0,0,0,39,18.76Z"/><path d="M43.86,24.14a0.92,0.92,0,0,0,.44.64q0-.34.22-0.34H44.6l-0.14.4q0.16,0,.16.24l0.24-.18H45.1V25l-0.22.4v0.08H45c0-.27.09-0.41,0.22-0.42h0.08l0,0.08-0.08.16h0.08a0.83,0.83,0,0,1,.32-0.1,10.39,10.39,0,0,1-.34,1.22,2.06,2.06,0,0,1,.18.72H45.44l0.1,0.16L45.1,28.42l0.16,0.06V28.6c0,0.24-.07.37-0.2,0.38l0.08,0.16v0.18a0.05,0.05,0,0,1-.06.06l0.08,0.16V29.6q0,0.34-.22.34L45,30.1l0,0.16a0.14,0.14,0,0,1-.16.16,0.05,0.05,0,0,0-.06-0.06h0a1,1,0,0,1-.14.4h0.08l0.16-.1v0.16A3.09,3.09,0,0,1,44.64,32l0.08,0.16-0.14.24h0.16l-0.08.16a0.07,0.07,0,0,0,.08.08,1.29,1.29,0,0,0-.12.5v0.06H44.7l-0.08.16,0,1H44.58q-0.16,0-.18-0.54H44.32l0,0.8,0.16-.08,0.08,0V34.6l0.12,0.8-0.18-.08,0,0.08a1.17,1.17,0,0,0,.5.54,1.69,1.69,0,0,1,.18.56,0.12,0.12,0,0,0-.14.12v0a0.74,0.74,0,0,1-.58-0.12l-0.16.08a1.83,1.83,0,0,0-.86-0.36h0a0.14,0.14,0,0,1-.16.16H43.24c-0.21,0-.32,0-0.32-0.14a0.36,0.36,0,0,0-.32.18,2.55,2.55,0,0,1-.74-0.6l-0.16.08H41.62A3.91,3.91,0,0,0,41.08,35l0.08-.42h0q-0.22,0-.26-0.54l0-.32,0.06-.48-0.08-.16,0.06-.48,0-.4H41V32.06H40.88l0-.24H41V32l0.08,0V31.64l-0.16,0A6.34,6.34,0,0,0,41.26,30q1.08-5.66,2.06-5.7l0.16,0.06Zm-2.7,10.7v0.08h0.16V34.84H41.16Zm0.6,0.7V35.7h0.08V35.54H41.76Zm1.66-5.28,0.16,0V30.08A0.18,0.18,0,0,0,43.42,30.26Zm0.48-1.78,0,0.16,0.08,0,0-.16ZM44,28.3h0.08l0.06-.4q-0.14,0-.14.2v0.2Zm0.12-.64,0,0.16H44.2l0-.16H44.1Zm0.28-.9v0a1.67,1.67,0,0,1-.2.62V27.5h0.08l0.22-.66,0-.08H44.38Zm1.34-11,0.46,0.46,0-.1h0.12a2.28,2.28,0,0,1,1.2,1.58,0.38,0.38,0,0,1,0,.12,0.16,0.16,0,0,1,0,.14V18l0,0.06A13.81,13.81,0,0,0,47,19.58a0,0,0,0,1,0,0v0a0.1,0.1,0,0,0-.12.1,0.59,0.59,0,0,1,0,.14v0a3,3,0,0,0-.52,1.3,1.85,1.85,0,0,1-.6.44v0a0.08,0.08,0,0,0-.1-0.08q0,0.26-.12.26H45.56c-0.09,0-.14-0.1-0.14-0.26V21.48l-0.12,0V21l-0.1,0,0,0.12-0.06.36a0.08,0.08,0,0,1-.08.1h0l-0.06,0a0.76,0.76,0,0,1-.2-0.66l-0.12-.08,0,0.22H44.6a0.33,0.33,0,0,1-.18-0.38,2.23,2.23,0,0,1,0-.28l-0.12,0-0.08-.2a0,0,0,0,1,0,0h0l0-.14,0.08-.62,0-.6,0.12,0,0-.3,0.06,0,0-.3A2,2,0,0,1,45,17.12L45,17V16.94h0.12l0-.34a0.08,0.08,0,0,1,.08-0.06,0.07,0.07,0,0,0-.06-0.06,1.44,1.44,0,0,1,.34-0.72l0.1,0.08a0.13,0.13,0,0,1,.12-0.1h0ZM44.36,32.86V33.1h0.08V32.86H44.36Zm0.3-6.9,0,0.08,0.16,0,0-.24A0.18,0.18,0,0,0,44.66,26Zm0,4.88v0.24h0.08V30.84H44.66Zm0.12-10.32,0,0.1,0.12,0,0-.12H44.78Zm0-.36a0.64,0.64,0,0,1,0,.18l0.06,0,0-.18Zm0,5.38V25.7H44.9V25.54H44.82Zm0-5.5V20.1l0.12,0V20.06Zm0,4.94,0,0.16H45l0-.16H44.86Zm0.26,2,0.16,0,0-.16A0.17,0.17,0,0,0,45.12,27Zm0.28-.66h0.08l0,0.16H45.42Zm0.14-.4,0.08,0,0,0.16-0.08,0Z"/><path d="M53.2,24.42l1,0.7-0.08.18v0.08a0.9,0.9,0,0,1,.44.78q0.3,0,.34.62a0.16,0.16,0,0,0-.16.18L55,27.12,55,27.3l0.18,0.26v0.36a2.34,2.34,0,0,1-1.24.34H53.3a0.08,0.08,0,0,1-.1-0.08,16.67,16.67,0,0,1-2.62.6Q53.5,30.34,55,31.24A5.57,5.57,0,0,1,56.7,33.6a3.65,3.65,0,0,1,.62,1.4h-0.1a0.54,0.54,0,0,1,.1.26,0.35,0.35,0,0,1-.18.26L57.22,36v0.16a1.13,1.13,0,0,1-.42.8H56.52V37H56.26V36.82H56.1L56.18,37v0.08a0.16,0.16,0,0,1-.18.18H55.82l-0.16-.08q0,0.4-1.14.7a2.33,2.33,0,0,0,1-1.14L55.14,37H55V36.74a1.88,1.88,0,0,0,.78-0.44V36.22H55.66L55,36.56H55V36.38h-0.1a0.24,0.24,0,0,1-.26.28,0.08,0.08,0,0,0-.08-0.1l-0.08.18a0.76,0.76,0,0,1,.26.08,0.07,0.07,0,0,1,.08-0.08v0.08q0,0.36-.78.36v0.08h0.26v0.18a3.24,3.24,0,0,1-1.14.44v-0.1H52.94V38H52.86V37.7A0.16,0.16,0,0,0,53,37.52h-0.1a0.61,0.61,0,0,1-.34.36V37.7H52.5v0.08a1,1,0,0,1,.18.44H52.5l-0.16-.08v0.18h-0.1V38a0.15,0.15,0,0,0,.18-0.16v-0.1H52.34a0.89,0.89,0,0,0-.44.44l-0.18-.08a0.62,0.62,0,0,0-.08.26h-0.1V38.22H51.38a0.52,0.52,0,0,1-.36.44l-0.52-.08q-0.06.34-.18,0.34H50.06A0.07,0.07,0,0,1,50,39l-0.62-.08a0.46,0.46,0,0,0-.34.26H49.2v0.1l-0.28.34-0.16-.08-0.26.16H48.32V39.62l0.18-.26V39.18H48.4l-0.34.26-0.18-.08a0.16,0.16,0,0,1-.18.18l-0.34-.1a0.92,0.92,0,0,1-.44.18l0.18,0.26a0.23,0.23,0,0,0,.26-0.26h0.08a0.08,0.08,0,0,1,.1.08l0.16-.08a0.08,0.08,0,0,1,.1.08L48,39.62l0.18,0.08a0.07,0.07,0,0,1,.08-0.08l0.1,0.18a0.78,0.78,0,0,0-.36.44H47.88V40.06H47.54l-0.44.08a0.8,0.8,0,0,1-.26-0.52h-0.1a0.62,0.62,0,0,1-.08.26h0.18V40c0,0.11-.12.16-0.36,0.16v0.1a0.16,0.16,0,0,0,.18.16,0.16,0.16,0,0,1,.18-0.16,0.63,0.63,0,0,0,.26.08V40.5a0.61,0.61,0,0,0-.26.08l-0.18-.08a0.46,0.46,0,0,0-.44.26H46.3a0.65,0.65,0,0,1,.26-0.1v0.1A3.41,3.41,0,0,1,48,40.5l-0.16.26L48,40.84a0.89,0.89,0,0,1,.36-0.52L48.4,40.5a0.16,0.16,0,0,0-.18.16H48.4l0.18-.08a0.63,0.63,0,0,0,.26.08v0.18l-0.44.1v-0.1l-0.6.26-0.1-.16-0.86.34v0.08H47v0.18l-0.44.1L46,41.54a0.08,0.08,0,0,0-.08.1l-0.44-.1H45.08V41.46l0.1-.18q-0.44,0-.44-0.18A0.07,0.07,0,0,0,44.82,41L45,41.1a0.15,0.15,0,0,0,.18-0.16V40.76l-0.36-.1-0.08.18a0.37,0.37,0,0,1-.36-0.34l-0.16.08h-0.1c0-.12-0.11-0.18-0.34-0.18a0.15,0.15,0,0,1,.16-0.16,0.08,0.08,0,0,0,.1.08l0.08-.18a2.11,2.11,0,0,0-.78-0.6,0.65,0.65,0,0,1-.1-0.26l0.1-.18V39h-0.1v0.18H43.08V39l0.08-.16a0.39,0.39,0,0,1-.26-0.26L43,38.4a1.84,1.84,0,0,1,1,.26h0.8l0.52-.08,0.18,0.08,3.58-1h0.26a17,17,0,0,1,2.8-1.32,9.51,9.51,0,0,0,3-2.36V33.86a12.11,12.11,0,0,0-1.56-.8l-0.18.1q-4-1.6-4.8-2.62a0.08,0.08,0,0,0,.08-0.1,0.81,0.81,0,0,1-.7-0.78q-0.26,0-.34-1a1.14,1.14,0,0,1-.36-0.78v-0.1h0.18V27.56a1.78,1.78,0,0,1-.44-1,0.36,0.36,0,0,1,.34-0.34A0.74,0.74,0,0,1,47.18,26l0.08-.18a0.74,0.74,0,0,1-.08-0.26l0.18,0.08q0-.34,1-0.34v0.16H48.4a0.15,0.15,0,0,0,.18-0.16c-0.17,0-.26-0.06-0.26-0.18A5.66,5.66,0,0,1,49.2,25a0.15,0.15,0,0,0,.16.16V25.12l-0.08-.18a0.7,0.7,0,0,0,.44-0.18H49.8a0.08,0.08,0,0,1,.08.1l1.32-.26v0.08A7.52,7.52,0,0,1,53.2,24.42ZM43.6,39.54v0.08h0.18V39.54H43.6ZM43.94,39h0.28V38.84h-0.1A0.16,0.16,0,0,0,43.94,39ZM44,39.54v0.08h0.18V39.54H44Zm0.26-.62V39.1q0.44,0,.44.18H44.9A0.25,0.25,0,0,1,45.18,39V38.92a1,1,0,0,1-.62-0.08A0.62,0.62,0,0,1,44.3,38.92Zm0.18,0.26-0.1.36h0.26l-0.08-.18a0.07,0.07,0,0,0,.08-0.08Zm-0.1.88v0.18h0.1V40.06h-0.1Zm0.1-.26v0.08h0.16V39.8H44.48Zm0.26,0.26v0.18H44.9A0.15,0.15,0,0,0,44.74,40.06Zm0.16-.26V40q0.36,0,.36.16h0.18l0.16-.08a0.76,0.76,0,0,1-.08-0.26l-0.44.08Zm1.32,0.44H46l-1.06.08V40.4q0.54,0,.54.26a2,2,0,0,0,1-.42v-0.1Zm-1.22-1v0.08h0.26V39.28H45Zm0.18-.54v0.1h0.16v-0.1H45.18Zm0.08,0.18V39.1h0.08V38.92H45.26Zm0.08,1.84v0.18h0.1V40.76h-0.1Zm0.26-1.92a3,3,0,0,1-.08.7H45.6q0.44,0,.44-0.26h0.1v0.26a1.24,1.24,0,0,0,.7-0.44c-0.12,0-.18,0-0.18-0.1l-0.18.1H46V39h0.18V38.92H46a0.07,0.07,0,0,1-.08.08L46,39.18a0.16,0.16,0,0,1-.18.18s0-.21-0.08-0.52H45.6Zm-0.08,2.1V41a0.62,0.62,0,0,1,.26.08h0.1V41a0.76,0.76,0,0,1-.28-0.08H45.52Zm0.08,0.78h0.1V41.9H45.6V41.72Zm0.28-3v0.1H46v-0.1H45.88Zm0.08,1v0.1a0.62,0.62,0,0,1,.08.26h0.1V39.7H46ZM46,41.8H46.3V42H46.22A0.16,0.16,0,0,1,46,41.8Zm0.1-3.14v0.18h0.08V38.66H46.14Zm0.08,1.22H46.4V39.7A0.19,0.19,0,0,0,46.22,39.88Zm0.62-1.48q0,0.18-.36.18v0.16L47,38.84a0.15,0.15,0,0,0-.16-0.18l0.08-.18V38.4H46.84Zm-0.36,1.4V40h0.08V39.8H46.48Zm0.44-.52v0.16H47V39.28H46.92Zm1.14-1v0.16H48a0.07,0.07,0,0,1-.08-0.08,0.77,0.77,0,0,0-.62.26v0.08l0.54-.16,0.08,0.16v0.1c-0.12,0-.18,0-0.18.08a0.07,0.07,0,0,1-.08-0.08l-0.52.08,0.08,0.18,0.36-.18,0.08,0.18a1.16,1.16,0,0,1-.52.08v0.18l1.3-.26V38.92L48,39V38.84h0.26v-0.1H48.06a0.75,0.75,0,0,1,.08-0.34V38.32H48.06Zm-1,.08v0.18h0.08V38.4H47.1Zm0.08-11.62V27h0.18V26.78H47.18Zm0,14.5h0.44v0.08l-0.44.1V41.28Zm0.18-.62v0.1h0.18v-0.1H47.36ZM47.44,40h0.18V39.8A0.17,0.17,0,0,0,47.44,40Zm0.1-1.76v0.1H47.7v-0.1H47.54ZM47.7,39.8V40a0.66,0.66,0,0,1,.36-0.1V39.8H47.7ZM48.06,38v0.1h0.16V38H48.06Zm5.5-1.48-0.18-.08a5.4,5.4,0,0,1-1.4.78,0.65,0.65,0,0,1,.1.26H52l-0.44-.18a0.54,0.54,0,0,1-.52.36l0.1,0.18L50.94,38H50.86V37.78h-0.1q0,0.36-1.22.7-0.44,0-.44-0.16a0.63,0.63,0,0,1-.26.08H48.76V38.32a0.9,0.9,0,0,0,.6-0.36l-1,.26v0.1l0.18,0.26a0.07,0.07,0,0,0-.08.08l0.16,0.08V38.58h0.1a0.07,0.07,0,0,1,.08.08L49,38.58q0.44,0,.44.16a3.75,3.75,0,0,0,1.56-.6,0.08,0.08,0,0,0,.1.08,0.86,0.86,0,0,1,.6-0.34A0.76,0.76,0,0,0,52,38l-0.08-.18a2.34,2.34,0,0,0,.78-0.44,0.09,0.09,0,0,0,.1.1,6.47,6.47,0,0,1,1.56-1A0.78,0.78,0,0,1,54.7,36a0.07,0.07,0,0,0,.08.08L54.86,36l-0.16-.1H54.6Q53.56,36,53.56,36.56ZM48.5,39h0.16a0.15,0.15,0,0,0,.18-0.16v-0.1A0.46,0.46,0,0,0,48.5,39Zm0.16,0.18v0.1h0.18v-0.1H48.66Zm0.18,0.62A0.17,0.17,0,0,1,49,40H48.84V39.8Zm0,0.78H49.1v0.08H48.84V40.58Zm0.08-2.8v0.1H49.1v-0.1H48.92Zm0,1v0.18H49V38.74h-0.1Zm0.54-.86V38h0.26l0.08-.18H49.72A0.65,0.65,0,0,1,49.46,37.88Zm0.34-.44v0.08h0.44V37.34Zm1.14,1.4v0.08q0,0.2-.62.26A0.59,0.59,0,0,1,50.94,38.84Zm-0.52-1.5v0.28H50.5a0.16,0.16,0,0,0,.18-0.18A0.53,0.53,0,0,1,50.42,37.34Zm0.6-.08v0.18h0.1a0.15,0.15,0,0,0,.16-0.18V37.18A0.63,0.63,0,0,1,51,37.26Zm0.1,1.48h0.26a0.16,0.16,0,0,1-.18.18H51.12V38.74Zm0.26-.08h0.16v0.08H51.38V38.66Zm0.34-2a0.18,0.18,0,0,0,.18.16L51.82,37v0.08H52V36.66H51.72ZM51.9,38.4h0.18a0.16,0.16,0,0,1-.18.18V38.4Zm0.52,0.18H52.5a1,1,0,0,1,.44.26l0.54-.26q0.6,0,.6.16A0.76,0.76,0,0,0,54,39l-0.18-.08a0.07,0.07,0,0,1-.08.08l-0.1-.34a2.15,2.15,0,0,1-.86.34v0.1H53A0.53,0.53,0,0,1,53.3,39v0.18l-0.36.1a0.08,0.08,0,0,0-.08-0.1c0,0.35-.09.52-0.26,0.52V39.62a0.75,0.75,0,0,0,.08-0.34l-0.26.16H52.16v0.1H52.08l-0.18-.1A0.68,0.68,0,0,0,52,39.1l0.26,0.18a0.64,0.64,0,0,1,.26-0.1V39.1l-0.08-.18a0.16,0.16,0,0,0,.18-0.18H52.42V38.58Zm-0.26-1.92-0.08.16,0.16,0.1,0.1-.18Zm0.26-.1v0.26H52.5V36.56H52.42Zm0.44,1.76h0.08a0.14,0.14,0,0,1-.16.16h-0.1A0.18,0.18,0,0,1,52.86,38.32Zm0.34-1v0.1h0.28l0.08-.18H53.48A0.76,0.76,0,0,1,53.2,37.34Zm0,0.28V37.7h0.18V37.62H53.2Zm0.36-.18v0.18h0.08V37.44H53.56Zm0.18,1H53.9v0.08H53.74V38.4Zm0.08-1.14v0.18H53.9V37.26H53.82Zm0.08,1.06h0.18V38.4H53.9V38.32Zm0.26-1.5v0.1h0.28v-0.1H54.16Zm0.18,1.76h0.1a0.15,0.15,0,0,1-.18.16h-0.1A0.18,0.18,0,0,1,54.34,38.58Zm0.26-1.24h0.1a0.16,0.16,0,0,1-.18.18H54.44A0.16,0.16,0,0,1,54.6,37.34ZM54.52,38.4H54.7v0.08H54.52V38.4Zm0.34-2.72v0.1H55v-0.1H54.86Zm0.1-.26v0.1h0.18v-0.1H55Zm0.26,0.1v0.16H55.3V35.52H55.22Zm0.34,1.14v0.08h0.1A0.65,0.65,0,0,0,56,36.3H55.92A0.62,0.62,0,0,0,55.56,36.66Zm0.18,0.78h0.18v0.18H55.74V37.44Zm0.44-1.14v0.18h0.08V36.3H56.18Zm0.26,0.88h0.08v0.16H56.44V37.18Z"/><path d="M63.24,18.06h0.08v0.08l-0.18.24,0,0.08,0.24,0a0.4,0.4,0,0,1,.26-0.38h0v0.08l-0.12.38,0.16,0a0.55,0.55,0,0,1,.12-0.3,0.93,0.93,0,0,0,.22.1,0.14,0.14,0,0,1-.14.14h0a0.39,0.39,0,0,0,.22.34,0.34,0.34,0,0,1,.18-0.3,0.53,0.53,0,0,0,.24.1l0,0.16L64.28,19l0,0.24,0.34-.2,0.14,0.1,0-.16L65,19l0.16,0.1a0.07,0.07,0,0,1,.08-0.08l0,0.48h0.08c0-.15.07-0.22,0.16-0.22h0l0.06,0.16a0.4,0.4,0,0,0-.28.38h0q0.14,0,.18-0.3h0.08l0.14,0.1a1.65,1.65,0,0,0-.3.62,0.16,0.16,0,0,1,.14.16v0a0.41,0.41,0,0,0-.34.2l0.06,0.16a5,5,0,0,1-.62,1.4V22.3a1.79,1.79,0,0,1,.62.3,0.15,0.15,0,0,1,.14-0.14h0l0.24,0.18a0.88,0.88,0,0,1,.82-0.24,0.07,0.07,0,0,1,.08-0.08,0.07,0.07,0,0,0,.08.08,0.05,0.05,0,0,1,.06-0.06h0a0.07,0.07,0,0,0,.08.08,0.16,0.16,0,0,1,.16-0.14h0l0.32,0,0,0.16h0.08l0.26-.14v0a0.08,0.08,0,0,0,.06.08A0.51,0.51,0,0,1,68.26,22l0.22,0A0.18,0.18,0,0,1,68.66,22h0.08a4,4,0,0,1,1.14.6,2.57,2.57,0,0,1,1.12.9l0.16,0,0,0.08L71,24c0.21,0,.32.07,0.32,0.18a0.81,0.81,0,0,1-.26,0H71l0,0.32,0.16,0a0.46,0.46,0,0,1-.36.22l0-.16-0.08,0-0.52.36-0.08,0,0.1-.14,0-.08a1.86,1.86,0,0,1-.5.26h0l0-.16,0.1-.14-0.08,0a2.5,2.5,0,0,0-.6.36A0.18,0.18,0,0,1,69,24.78v0l-0.4,0V24.7l-0.16.06H68.38L68,24.48a0.64,0.64,0,0,1-.24,0H67.68a0.29,0.29,0,0,0-.22-0.34l0.1-.14v0a0.38,0.38,0,0,0-.22-0.26v0.08L67.4,24h0a0.55,0.55,0,0,0-.32.2A0.05,0.05,0,0,1,67,24.16v0a2.87,2.87,0,0,0-1.34.42v0a0.12,0.12,0,0,0-.14-0.12c0,0.09,0,.14-0.08.14h0a0.44,0.44,0,0,0-.22-0.1,0.44,0.44,0,0,1-.4.28h0l0.06,0.16a0.66,0.66,0,0,0-.68.5c-0.05,0-.09.08-0.1,0.24L64,25.6V25.44H63.88a0.13,0.13,0,0,0-.16.14H63.8a0.71,0.71,0,0,1-.36.46h0v0a0.08,0.08,0,0,0-.06-0.08L63.1,27l0.3,0.12a1.34,1.34,0,0,0-.2.46l0,0.4a0.6,0.6,0,0,1-.2.46v0a0.08,0.08,0,0,0,.06.08q0,0.54-.26.54h0l0,0.06a0.21,0.21,0,0,1,.22.18v0h0a0.05,0.05,0,0,0-.06.06l0.24,0,0,0.32H63l0-.24-0.08,0a4.32,4.32,0,0,1-.14.56h0.08l-0.1.16,0,0.16,0.24,0v0.08l-0.4,0,0,0.16a0.07,0.07,0,0,0,.08-0.08,0.49,0.49,0,0,1,.3.26v0l-0.08,0-0.16-.1,0,0.32,0.08,0L62.94,31v0.08l-0.28.28,0,0.48,0.08,0c0-.25.09-0.38,0.18-0.38h0l0,0.14-0.1.16a0.07,0.07,0,0,1,.08.08,0.09,0.09,0,0,0-.1.08,0.07,0.07,0,0,1,.08.08,0.18,0.18,0,0,0-.18.16v0.08h0.08l0-.16a0.16,0.16,0,0,1,.14.16v0h0a0.55,0.55,0,0,0-.26.36l0,1.3a0.16,0.16,0,0,0-.18.14,0.07,0.07,0,0,1,.08.08h0q-0.22,0-.28.46l0.16,0,0,0.24-0.16-.1v0.08a0.16,0.16,0,0,0,.14.18l-0.1.14v0.16a0.58,0.58,0,0,1,.36.36l-0.1.16a2.16,2.16,0,0,0,.26.58V36.5l-0.32.06a0.09,0.09,0,0,0-.08-0.1l-0.18.22-0.16-.08a0.67,0.67,0,0,1-.2,0h0l-0.06-.16,0.1-.14-0.16-.1v0.08a0.05,0.05,0,0,1,.06.06v0l-0.34.22a0.64,0.64,0,0,0-.3-0.2l0-.24,0.16,0v0a2.76,2.76,0,0,0-.54-0.92h0a0.12,0.12,0,0,0,.12-0.14l0-.08h0q-0.14,0-.16.22a0.81,0.81,0,0,1-.28-0.52l0-.22,0.16,0.08a12.34,12.34,0,0,1-.24-2.16c0-.19,0-0.35,0-0.5l-0.16,0V32.8l-0.16,0,0,0.08A2.22,2.22,0,0,1,60.46,34a1.35,1.35,0,0,1,0,.22v0.08H60.36v0a1.16,1.16,0,0,0-.58-0.6l0.1-.16-0.24,0V33.46l0.32,0,0-.08v0a0.14,0.14,0,0,0-.14-0.14,0.07,0.07,0,0,1,.08-0.08,2,2,0,0,1,0-.32c0-.13,0-0.29,0-0.48h0a0.34,0.34,0,0,0,.16-0.22l-0.24,0,0.06-.48a0.16,0.16,0,0,0-.16-0.18,1.41,1.41,0,0,1,.64-0.66h0.08l0,0.16,0.08,0,0-.48-0.5.28-0.14-.26,0.16-.06a0.07,0.07,0,0,0,.08.08,0.64,0.64,0,0,1,.2-0.3l-0.08,0-0.18.08A1.21,1.21,0,0,1,60,29.8l0.12-.4H60a2.13,2.13,0,0,1,.32-0.7l0-.48a2.11,2.11,0,0,1,.22-0.7,0.05,0.05,0,0,1-.06-0.06v0h0.16a0.73,0.73,0,0,0,.22.12l-0.06-.18L61,27.32l-0.08-.16,0-.08,0.1-.16-0.16-.1-0.1.16,0,0.4-0.32,0,0-.08a1.74,1.74,0,0,1,.22-0.62,0.09,0.09,0,0,1-.08-0.1l0.42-.12V26.36a0.21,0.21,0,0,1-.22-0.22v0a0.49,0.49,0,0,0-.5.2v0.08l0.06,0.16-0.16.06H60.16l0-.24-0.26.14a0.47,0.47,0,0,1,.06.2v0l0.08,0,0-.16a0.81,0.81,0,0,0,.38.1v0.16H60.38l-0.16-.1,0,0.24,0.16,0,0,0.08a0.4,0.4,0,0,1-.36.44v0a0.05,0.05,0,0,0-.06-0.06L60,27.3l0-.24H59.88l0,0.32-0.24,0a0.05,0.05,0,0,1,.06-0.06h0l-0.06-.18,0-.3,0.18-.24H59.68l0.18-.24,0-.24-0.06-.16a4,4,0,0,1-1,.06l-0.08-.16-0.4,0-0.16,0-1.08-.34a0.08,0.08,0,0,1-.08.06h0l0-.08,0.18-.22c-0.21,0-.32,0-0.32-0.1l-0.16.06H56.68a2.42,2.42,0,0,0,.14-0.56l-0.28-.5a0.47,0.47,0,0,1,.2-0.06h0l-0.06-.18a2.94,2.94,0,0,1,.92-0.22H57.7v0.08l0.5-.18a0.82,0.82,0,0,1,.32.1,0.4,0.4,0,0,0,.42-0.28l0.16,0.1,0.32,0a1.08,1.08,0,0,1,.54-0.2h0a0.55,0.55,0,0,0,.3.12,1.4,1.4,0,0,0,.6-0.34,0.71,0.71,0,0,1,.12-0.4,0.07,0.07,0,0,1-.08-0.08h0a0.14,0.14,0,0,0,.14-0.14l-0.24,0a0.17,0.17,0,0,1,.18-0.14l0.14,0.1,0-.24-0.18.06H61l0-.32H61.1a0.22,0.22,0,0,0,.26-0.2,0.09,0.09,0,0,1-.08-0.1,11,11,0,0,0,1.08-2.7,0.58,0.58,0,0,1,.26-0.3l0.08,0V18.8l0.08,0V18.66a0.05,0.05,0,0,1-.06-0.06v0h0.16l-0.06-.16A1.08,1.08,0,0,1,63.24,18.06ZM57,25v0.08l0.16,0V25Zm0.44,0.36a0.16,0.16,0,0,0,.14.18l0-.16ZM59,23.68l0,0.16h0.08l0-.16H59Zm0.18,8.7h0.16l0.06,0.34-0.18.06-0.06-.16Zm0.2-1.2,0.3,0.36,0,0.4-0.24,0,0.12-.38-0.18.06-0.12-.26A0.16,0.16,0,0,1,59.38,31.18Zm-0.12,2a0.81,0.81,0,0,1,.26.76l-0.16,0C59.29,33.51,59.26,33.26,59.26,33.18ZM60,28V28a0.74,0.74,0,0,0,.12.42l-0.26.14v0a0.21,0.21,0,0,0,.22.22l0,0.08-0.14,0,0,0.32a0.09,0.09,0,0,0,.08.1,1.89,1.89,0,0,1-.44,1.08l-0.06-.18a0.55,0.55,0,0,0,.12-0.3l-0.24,0V29.82l0.16,0,0-.16-0.24,0a0.94,0.94,0,0,0,.52-0.5l-0.4,0A0.18,0.18,0,0,1,59.64,29h0l0-.08a0.21,0.21,0,0,1-.22-0.22v0a0.43,0.43,0,0,0,.1-0.22h0.08l0,0.4,0.16,0V28.74l0-.42,0.18-.06-0.08-.16A0.19,0.19,0,0,1,60,28h0Zm-0.72,5,0.16,0,0,0.16A0.14,0.14,0,0,1,59.3,33v0Zm0.48,0,0,0.16a0.43,0.43,0,0,0-.1.22,0.14,0.14,0,0,1-.14-0.14v0l0-.16h0A0.65,0.65,0,0,0,59.78,32.92Zm-0.16-3.24,0,0.16h0.08l0-.16H59.62Zm0-1.68h0.16v0.08H59.62V28Zm0,3,0.16,0v0.08l-0.16,0V31ZM59.74,34l0.24,0a5.31,5.31,0,0,1,.16.94v0l0,0.16A1.89,1.89,0,0,1,59.74,34ZM60,33.5v0.08h0.16V33.5H60ZM60,27.8H60.2a0.78,0.78,0,0,0,.06.26l-0.08,0A0.12,0.12,0,0,1,60,27.92V27.8Zm0.06-.64,0,0.24h0.08l0-.24H60.1Zm0.1,6.36,0,0.24h0.08l0-.24H60.2Zm0,0.88a2.67,2.67,0,0,1,.44,1.08,0.08,0.08,0,0,0-.08.08,0.07,0.07,0,0,1,.08.08H60.48l0-.24-0.16,0,0,0.16-0.14-.1a0.31,0.31,0,0,1,.18-0.22,2.93,2.93,0,0,1-.16-0.76V34.4Zm0.14-3.12,0,0.4h0.08l0.12-.38Zm0-1.76a0.13,0.13,0,0,0,.14.16l0-.16H60.36Zm0-.48v0.08h0.16V29H60.4Zm0.1-1,0.14,0.26a0.14,0.14,0,0,0-.18.14l0,0.08h0.1c0.09,0,.15-0.07.16-0.22a0.65,0.65,0,0,1,0-.2v0Zm0,1.94a0.44,0.44,0,0,1-.1.22v0.08l0.08,0a0.44,0.44,0,0,1,.1-0.24V30H60.54ZM60.46,31l0,0.16,0.08,0,0-.16Zm0.08-5v0.16h0.08V25.92H60.54Zm0,5.46,0,0.16h0.08l0-.16H60.58Zm0.12-2.16-0.1.16,0,0.24h0.08a0.21,0.21,0,0,1,.22-0.22h0l0-.08A0.44,0.44,0,0,1,60.7,29.22Zm-0.06-.16v0.08l0.16,0V29.08Zm0,3.86,0,0.16h0.08l0-.16H60.66Zm0,0.32a11.11,11.11,0,0,1,.2,1.22l0.16,0V34.4a1.08,1.08,0,0,1-.16-0.64,3,3,0,0,1,0-.34V33.34a0.18,0.18,0,0,1,.22-0.14h0l0-.16a0.87,0.87,0,0,1-.46.2h0Zm0,1.44v0.16l0.08,0V34.7Zm0.06-7,0,0.24h0.08l0-.24H60.7Zm0,5.14,0.16,0a0.48,0.48,0,0,1,.12-0.4l-0.06-.16a0.44,0.44,0,0,0,.1-0.24A0.94,0.94,0,0,0,60.66,32.84Zm0.22-4.56-0.14.54,0,0.16,0.08,0a0.74,0.74,0,0,1,.3-0.46A0.18,0.18,0,0,1,61,28.32v0H60.88Zm-0.12,2.8,0,0.32,0.22,0a0.64,0.64,0,0,1,0-.24V31.1Zm0-.32,0,0.16,0.16,0,0-.16Zm0,0.8,0,0.16,0.16,0v0A0.14,0.14,0,0,0,60.8,31.56Zm0.08-5v0.08l0.16,0V26.6Zm0.06,1.06,0,0.48H61a0.76,0.76,0,0,1,.12-0.46Zm0,2.74,0,0.14,0.08,0,0-.16H60.92Zm0-.24,0,0.16H61l0-.16H60.94Zm0,3.36v0.08l0.16,0V33.52Zm0-3.68,0,0.24H61l0-.24H61Zm0.16-4.1L61,26l0.16,0a0.82,0.82,0,0,1,.1-0.32Zm0.18,2.44,0.06,0.16a0.18,0.18,0,0,0-.18.14v0.08l0.16-.06,0.16,0a0.37,0.37,0,0,1-.26.22,0.09,0.09,0,0,0-.08-0.1,1.1,1.1,0,0,1-.14.64,0.77,0.77,0,0,1,.06.24l0.08,0a0.49,0.49,0,0,1,.18-0.32l0-.08L61.3,29l0.16-.06a0.07,0.07,0,0,0,.08.08,0.05,0.05,0,0,1,.06-0.06h0a0.07,0.07,0,0,0,.08.08V28.84l-0.3-.1a0.5,0.5,0,0,0,.18-0.32,0.76,0.76,0,0,1-.06-0.24Zm-0.22,6.32,0,0.24,0.08,0,0-.24Zm0-7.46,0,0.22,0.16,0A0.76,0.76,0,0,1,61.16,27H61.08Zm0,5.14v0.08a0.13,0.13,0,0,0,.14.16V32.28A0.12,0.12,0,0,0,61.06,32.16Zm0,2.82h0.16l0-.16A0.18,0.18,0,0,0,61.1,35Zm0-8.36V26.7h0.16V26.62H61.12Zm0,1.28,0,0.16h0.08l0-.14Zm0-.56V27.5l0.08,0V27.36Zm0,8,0,0.16,0.08,0,0-.16ZM61.6,22.48a0.21,0.21,0,0,1-.22.22h0v0.16L61.72,23V22.9a0.77,0.77,0,0,1,0-.28V22.48H61.6ZM61.36,35.64l0,0.16a0.18,0.18,0,0,0,.14.18h0.08l0-.08A0.38,0.38,0,0,0,61.36,35.64Zm0-12.38,0,0.16,0.24,0V23.36A0.43,0.43,0,0,1,61.38,23.26Zm0,8.68,0,0.16,0.08,0,0-.16Zm0,3.3,0,0.08,0.16,0,0-.08Zm0.1-7.62a0.43,0.43,0,0,1-.1.22,0.21,0.21,0,0,1,.22.22v0l0.08,0a3.58,3.58,0,0,1,.12-0.48,0.07,0.07,0,0,0-.08.08l-0.16-.1H61.5Zm-0.06,1.44v0.08l0.16,0V29.08Zm0.06,7.56,0.16,0a0.85,0.85,0,0,0,.24.1l0,0.24a0.8,0.8,0,0,0-.38-0.28V36.62ZM61.58,30V30.2h0.08l0.12-.38h0A0.21,0.21,0,0,0,61.58,30Zm0-3.46v0.08l0.16-.06a0.07,0.07,0,0,0,.08.08l0-.24H61.78A0.16,0.16,0,0,0,61.6,26.58Zm0,0.48,0,0.32,0.08,0,0-.32Zm0.5-6.7,0.06,0.16q-0.06.6-.3,0.62L62,21.32v0.06l-0.24,0v0a0.53,0.53,0,0,0,.28.34q0.1-.84.38-0.84h0l0-.08c-0.11,0-.16,0-0.16-0.1a0.44,0.44,0,0,0,.1-0.24l-0.14-.08Zm-0.38,1.5,0,0.08a0.15,0.15,0,0,0,.14.16l0.08,0L62,22a0.16,0.16,0,0,0-.16-0.18H61.76Zm0,7.38v0.08l0.16,0V29.26Zm0-.24v0.16l0.08,0V29Zm0.12,3.08,0,0.16A0.14,0.14,0,0,0,62,32.08H61.88Zm0,0.56,0,0.08,0.16,0,0-.08Zm0-1.2,0,0.16H62l0-.16H61.94Zm0-3.54,0,0.24a0.76,0.76,0,0,1,.24-0.06l0-.08A0.44,0.44,0,0,1,62,27.9Zm0,1v0.08l0.16,0V28.88Zm0-6.1v0.08l0.16,0,0-.24A0.16,0.16,0,0,0,62,22.76ZM62.12,19h0.16l0,0.24H62.08Zm0,11.64,0,0.16,0.08,0,0-.16Zm0-5.14,0,0.16,0.08,0,0-.16Zm0.06,1.7,0.16,0,0-.16A0.16,0.16,0,0,0,62.18,27.2Zm0,6.44,0,0.16h0.08l0-.16H62.2Zm0.28-15.1,0,0.08a1.3,1.3,0,0,0-.1.24l-0.16,0,0-.08A0.32,0.32,0,0,1,62.48,18.54ZM62.3,25.2l0,0.16h0.08l0-.16H62.3Zm0.06,1.14a0.13,0.13,0,0,0,.14.16l0-.16H62.36Zm0.08,4.74v0.16l0.08,0V31.1Zm0.06-9.56V21.6l0.16,0V21.54Zm0,14.72V36.4h0.06l0-.16H62.5ZM62.56,26l0,0.14,0.08,0,0-.16H62.56Zm0.14,2.58h0.12A0.14,0.14,0,0,0,63,28.4H62.88A0.16,0.16,0,0,0,62.7,28.54ZM62.84,28L63,28V27.84A0.15,0.15,0,0,0,62.84,28Zm0.24-.86,0,0.16,0.08,0,0-.16Zm0.06,1.78,0.16,0V29a0.43,0.43,0,0,0-.1.22H63.12Zm0-6.66,0,0.16h0.08l0-.16H63.16Zm0.26,4,0.16,0L63.42,27l-0.16,0,0-.4ZM63.32,28a0.15,0.15,0,0,1,.14.14v0H63.3Zm0.06-6.42,0,0.3,0.08,0a1.61,1.61,0,0,1,.2-0.46l-0.08,0A0.18,0.18,0,0,0,63.38,21.54Zm0,6.26,0.08,0,0,0.16L63.4,28ZM63.66,22l-0.22.54v0.16h0.08a1.16,1.16,0,0,1,.22-0.62V22H63.66ZM63.5,21.3l0.16,0,0-.24,0.12-.4h0A0.65,0.65,0,0,0,63.5,21.3ZM63.62,25l0,0.16,0.08,0V25Zm0.16-3.28,0,0.08,0.08,0L64,21.5A0.19,0.19,0,0,0,63.78,21.72ZM64,24.8l0.38,0.12,0.1-.16-0.16-.08a0.12,0.12,0,0,1-.12.14h0V24.66A0.13,0.13,0,0,0,64,24.8Zm0.32-5a1.6,1.6,0,0,0-.2.4v0.08h0.08a0.7,0.7,0,0,1,.2-0.38V19.86Zm-0.06-1.12v0.16H64.3V18.72H64.22Zm0.26,0.66a0.77,0.77,0,0,1-.2.4h0.16l0.12-.3V19.4Zm-0.16,1,0.16,0V20.2A0.13,0.13,0,0,0,64.32,20.34Zm0.26,2.2,0,0.08h0.16l0-.08H64.58Zm0,0.48h0.08l0.82-.08V22.86a0.45,0.45,0,0,1-.38-0.12A0.63,0.63,0,0,0,64.6,23Zm0.12-3.52a1,1,0,0,1-.1.22l0.16,0,0-.24H64.72Zm0,4.5,0,0.16h0.08l0-.16H64.76Zm0.14-4.82v0.16l0.08,0V19.2Zm0,4.1v0.08l0.16,0V23.3Zm0.7-.48,0,0.08h0.16l0-.08H65.6Zm0,1.44,0,0.08,0.16,0,0-.08Zm0.18-1,0,0.08h0.16l0-.06Zm0.3-.54,0,0.16h0.08V22.68H66.1ZM66.22,23V23.1h0.06A1,1,0,0,1,66.54,23V23H66.46A0.77,0.77,0,0,1,66.22,23Zm0.26-.3a0.18,0.18,0,0,0,.16.18h0.08a0.16,0.16,0,0,0-.16-0.18H66.48Zm0,0.88v0.08l0.16,0V23.62Zm0,0.4v0.08l0.16,0V24Zm0.26-.94,0,0.08a0.63,0.63,0,0,1,.38.2l0-.08a0.8,0.8,0,0,1-.06-0.32,0.58,0.58,0,0,1-.28.12h0Zm0.12-.38,0,0.16H67l0-.16H66.9Zm0.54-.6,0.08,0,0,0.24-0.08,0Z"/><path d="M69.24,24.14a0.92,0.92,0,0,0,.44.64q0-.34.22-0.34H70l-0.14.4q0.16,0,.16.24l0.24-.18h0.24V25l-0.22.4v0.08h0.16c0-.27.09-0.41,0.22-0.42h0.08l0,0.08-0.08.16h0.08a0.83,0.83,0,0,1,.32-0.1,10.39,10.39,0,0,1-.34,1.22,2.06,2.06,0,0,1,.18.72H70.82l0.1,0.16-0.44,1.14,0.16,0.06V28.6c0,0.24-.07.37-0.2,0.38l0.08,0.16v0.18a0.05,0.05,0,0,1-.06.06l0.08,0.16V29.6q0,0.34-.22.34L70.4,30.1l0,0.16a0.14,0.14,0,0,1-.16.16,0.05,0.05,0,0,0-.06-0.06h0a1,1,0,0,1-.14.4h0.08l0.16-.1v0.16A3.09,3.09,0,0,1,70,32L70.1,32.2,70,32.44h0.16L70,32.6a0.07,0.07,0,0,0,.08.08,1.29,1.29,0,0,0-.12.5v0.06h0.08L70,33.4l0,1H70q-0.16,0-.18-0.54H69.7l0,0.8,0.16-.08,0.08,0V34.6l0.12,0.8-0.18-.08,0,0.08a1.17,1.17,0,0,0,.5.54,1.69,1.69,0,0,1,.18.56,0.12,0.12,0,0,0-.14.12v0a0.74,0.74,0,0,1-.58-0.12l-0.16.08a1.83,1.83,0,0,0-.86-0.36h0a0.14,0.14,0,0,1-.16.16H68.62c-0.21,0-.32,0-0.32-0.14a0.36,0.36,0,0,0-.32.18,2.55,2.55,0,0,1-.74-0.6l-0.16.08H67A3.91,3.91,0,0,0,66.46,35l0.08-.42h0q-0.22,0-.26-0.54l0-.32,0.06-.48-0.08-.16,0.06-.48,0-.4h0.16V32.06H66.26l0-.24H66.4V32l0.08,0V31.64l-0.16,0A6.34,6.34,0,0,0,66.64,30q1.08-5.66,2.06-5.7l0.16,0.06Zm-2.7,10.7v0.08H66.7V34.84H66.54Zm0.6,0.7V35.7h0.08V35.54H67.14Zm1.66-5.28,0.16,0V30.08A0.18,0.18,0,0,0,68.8,30.26Zm0.48-1.78,0,0.16,0.08,0,0-.16Zm0.08-.18h0.08l0.06-.4q-0.14,0-.14.2v0.2Zm0.12-.64,0,0.16h0.08l0-.16H69.48Zm0.28-.9v0a1.67,1.67,0,0,1-.2.62V27.5h0.08l0.22-.66,0-.08H69.76Zm1.34-11,0.46,0.46,0-.1H71.7a2.28,2.28,0,0,1,1.2,1.58,0.38,0.38,0,0,1,0,.12,0.16,0.16,0,0,1,0,.14V18l0,0.06a13.81,13.81,0,0,0-.48,1.48,0,0,0,0,1,0,0v0a0.1,0.1,0,0,0-.12.1,0.59,0.59,0,0,1,0,.14v0a3,3,0,0,0-.52,1.3,1.85,1.85,0,0,1-.6.44v0a0.08,0.08,0,0,0-.1-0.08q0,0.26-.12.26H70.94c-0.09,0-.14-0.1-0.14-0.26V21.48l-0.12,0V21l-0.1,0,0,0.12-0.06.36a0.08,0.08,0,0,1-.08.1h0l-0.06,0a0.76,0.76,0,0,1-.2-0.66l-0.12-.08L70,21H70a0.33,0.33,0,0,1-.18-0.38,2.23,2.23,0,0,1,0-.28l-0.12,0-0.08-.2a0,0,0,0,1,0,0h0l0-.14,0.08-.62,0-.6,0.12,0,0-.3,0.06,0,0-.3a2,2,0,0,1,.44-1.12l0-.12V16.94h0.12l0-.34a0.08,0.08,0,0,1,.08-0.06,0.07,0.07,0,0,0-.06-0.06,1.44,1.44,0,0,1,.34-0.72L71,15.84a0.13,0.13,0,0,1,.12-0.1h0ZM69.74,32.86V33.1h0.08V32.86H69.74ZM70,26l0,0.08,0.16,0,0-.24A0.18,0.18,0,0,0,70,26Zm0,4.88v0.24h0.08V30.84H70Zm0.12-10.32,0,0.1,0.12,0,0-.12H70.16Zm0-.36a0.64,0.64,0,0,1,0,.18l0.06,0,0-.18Zm0,5.38V25.7h0.08V25.54H70.2Zm0-5.5V20.1l0.12,0V20.06Zm0,4.94,0,0.16h0.08l0-.16H70.24Zm0.26,2,0.16,0,0-.16A0.17,0.17,0,0,0,70.5,27Zm0.28-.66h0.08l0,0.16H70.8Zm0.14-.4,0.08,0,0,0.16-0.08,0Z"/><path d="M76.64,24.34h0.08a1.25,1.25,0,0,0,.82.58,0.26,0.26,0,0,0,.3.18l0.22,0v0A0.08,0.08,0,0,1,78.12,25a0.19,0.19,0,0,0,.16.14h0l0-.32,0.08,0a1.23,1.23,0,0,0,.6.22H79l0,0.08L79,25.24h0.08a0.7,0.7,0,0,1,.3-0.14,2.61,2.61,0,0,0,1,.88l0.14-.1a4.65,4.65,0,0,0,1.4.58l0,0.22,0.14-.1a1.61,1.61,0,0,1,.68.7L83,27.56q0.1,1.1.1,1.76a1.4,1.4,0,0,1-.14.86l0.1,0.14v0a0.05,0.05,0,0,1-.06.06,0.07,0.07,0,0,0,.08.08,0.67,0.67,0,0,1,0,.16,0.62,0.62,0,0,1-.3.54v0.14a0.41,0.41,0,0,1-.08.36l0.1,0.14v0a0.19,0.19,0,0,1-.2.16V32.1a0.08,0.08,0,0,0,.08.06h0l-0.06.16,0,0.24-0.08,0,0.12,0.14a1,1,0,0,0-.08.38v0.12c0.05,0,.08,0,0.08.06l-0.14,0,0.08,0.46-0.16,0V33.9l0.16,0q-0.06,1.4-.32,1.44l0.14,0.38,0,0.16a0.67,0.67,0,0,0-.34.46l-0.16,0,0.16,0.38h0.06V36.62a0.15,0.15,0,0,1,.12-0.18L82.5,37v0a0.14,0.14,0,0,1-.14.14l0-.22H82.26a0.17,0.17,0,0,0-.12.18V37.2l-0.18,0a1.45,1.45,0,0,1,0,.3,0.33,0.33,0,0,1,0,.18L82.26,38,82.1,38l-0.24,0v0.16a3.07,3.07,0,0,1-.14,1l0,0.24a1.32,1.32,0,0,1-.26.78l0-.08,0.16-1.4V38.6H81.56A2.21,2.21,0,0,1,81.24,40a0.43,0.43,0,0,1,.1.22v0.06a0.27,0.27,0,0,1-.26.24l0,0.16,0.32-.06v0a0.14,0.14,0,0,1-.14.14,0.05,0.05,0,0,0-.06-0.06h0v0a0.14,0.14,0,0,1-.14.14L81,41l0-.24-0.46,1.12,0,0.08,0.5-.8,0,0.14s-0.15.45-.44,1.22l0.14,0,0,0.16-0.24,0,0-.16H80.44v0a0.92,0.92,0,0,1-.4.54l0.1,0.14-0.14.1-0.48,0H79.44l0,0.24-0.26,0a11.42,11.42,0,0,1-1.46-.14l0-.16-0.32,0,0,0.08-0.16,0L77,43.12v0a0.15,0.15,0,0,1-.12.14,0.94,0.94,0,0,0-1-.48,1.85,1.85,0,0,0-.9-0.5A1.89,1.89,0,0,1,74,41.66v0a0.08,0.08,0,0,1-.06.08A1.42,1.42,0,0,0,73,41.5a1.06,1.06,0,0,1-.5-0.56l-0.22.2A1.29,1.29,0,0,1,72,40.62l-0.22.2-0.14,0h0a2,2,0,0,1-.68-0.68H70.86A0.15,0.15,0,0,1,70.68,40l0-.16L71,40.06l0-.16a2.63,2.63,0,0,0-.56-0.14h0l0-.08,0.24,0,0.4,0a0.19,0.19,0,0,1,.14-0.2,0.72,0.72,0,0,0,.46.34v0a0.08,0.08,0,0,1,.06-0.08,4.59,4.59,0,0,0,1.44.32,1.77,1.77,0,0,1,1.48,1.14q0.54,0.32,1.44.8a1.71,1.71,0,0,0,.58.14h0.1q1.44-.24,2-6l-0.56.1v0a1,1,0,0,1-1,.44H77q-0.84,0-.92-0.46H76l0,0.16-0.08,0a1.13,1.13,0,0,0-.68-0.28l-0.16,0,0-.16,0.24,0V35.84H74.92a0.56,0.56,0,0,1,0,.12,0.11,0.11,0,0,1-.06.12l-0.2,0A0.18,0.18,0,0,1,74.46,36l0-.22H74.3a2,2,0,0,1-1.34-1l-0.08-.48,0.06-.16a0.58,0.58,0,0,1-.5-0.48l0.08,0-0.1-.14a0.87,0.87,0,0,0,0-.22v0l-0.1-.14q0-.26.12-0.26l-0.12-.14a0.87,0.87,0,0,0,0-.22v0a0.73,0.73,0,0,1-.12-0.22l0.14-.1,0.08,0,0,0.24,0.08,0-0.06-.4L72.4,32l0-.08V31.8a0.55,0.55,0,0,1,.24-0.46A14.18,14.18,0,0,1,75,25.2l0.3-.06a4.44,4.44,0,0,1-.58.82l0.16,0V26a1.33,1.33,0,0,1-.4.48,14.85,14.85,0,0,0-1.58,5v0.08a3.21,3.21,0,0,1-.06.5l0.24,0v0.5a0.41,0.41,0,0,0,.2-0.28l-0.12-.14a4.43,4.43,0,0,0,.26-1.42,1,1,0,0,0,.2-0.58,1,1,0,0,0,0-.2,0.17,0.17,0,0,1,.2.14,6.36,6.36,0,0,0-.3,1.66l0,0.16h0.08V31.8a5,5,0,0,1,.26-1.22V30.5a4.21,4.21,0,0,1,.48-1.38L74.3,28.8a1.59,1.59,0,0,1-.38.62l0-.22,0.18-.36,0-.16-0.1-.14a0.34,0.34,0,0,0,.32-0.36v-0.1h0a0.14,0.14,0,0,1-.14-0.14l0-.08,0.16,0,0,0.16a2.66,2.66,0,0,0,.56-1.08,1.1,1.1,0,0,0,.3-0.62l0,0.16H75.2l0-.16a0.09,0.09,0,0,1-.1-0.08,4.66,4.66,0,0,0,1-1.3,0.85,0.85,0,0,0,.5-0.4H76.5l-0.28.22,0-.08A0.47,0.47,0,0,1,76.64,24.34ZM71.88,40.88l0.16,0,0,0.08L71.9,41Zm0.62-9.26,0,0.16,0.08,0,0-.16Zm0-1.3,0.14,0,0,0.16-0.16,0Zm0.32,1.88,0,0.32,0.08,0-0.06-.3H72.86Zm0,0.5,0,0.22H73l0-.24ZM73.22,31l0,0.16a0.94,0.94,0,0,1,0,.18,0.33,0.33,0,0,1-.18.34L73,31.7V31.62C73,31.23,73.07,31,73.22,31Zm-0.16,2.46h0a0.14,0.14,0,0,1,.14.14l0.08,0V33.5a0.4,0.4,0,0,1-.12-0.22,0.19,0.19,0,0,0-.14.16v0Zm0-.8L73.14,33h0.08l-0.06-.32Zm0,1,0,0.16,0.08,0,0-.14H73.1Zm0.22-3.44,0.16,0a0.64,0.64,0,0,1-.24.52l-0.08,0V30.6Q73.16,30.2,73.32,30.18Zm-0.14.66h0.08l0,0.16H73.22Zm0.06,10.38,0,0.08,0.14,0V41.2Zm0.16-9.1,0.06,0.3h0.08v0a0.65,0.65,0,0,1,.1-0.3Zm0,0.48,0,0.08,0.16,0,0-.08Zm0.52-3.18,0,0.16v0a0.37,0.37,0,0,1-.18.26l0-.16v0A0.43,0.43,0,0,1,73.92,29.42ZM74,30.88L74,31l0.14,0,0-.16Zm0.1-.34,0,0.08,0.08,0a0.14,0.14,0,0,0,.14-0.14v0l0-.08H74.24a0.19,0.19,0,0,0-.14.18v0Zm0.12,0.7v0a0.08,0.08,0,0,1-.06.08l0.22,0.28a0.18,0.18,0,0,0-.14.16v0l0,0.08h0.08a0.37,0.37,0,0,0,.18-0.36,0.69,0.69,0,0,0,0-.16l0-.16-0.14.1a0.08,0.08,0,0,0-.08-0.06h0ZM74.16,32.3l0.16,0.46H74.4l-0.08-.48Zm0,0.74,0.1,0.54,0.08,0,0-.72a0.19,0.19,0,0,0-.14.18v0Zm0.08-1,0,0.16,0.06,0,0-.14H74.28Zm0,1.88,0,0.22H74.4l0-.24ZM74.52,31l0.16,0,0-.16a0.18,0.18,0,0,0-.12.16v0Zm0.12-.68,0,0.16a0.12,0.12,0,0,0,.12-0.12V30.34l0-.16a0.16,0.16,0,0,0-.14.16v0Zm0.14,1.28L74.84,32l0.08,0V31.46a0.16,0.16,0,0,0-.14.16v0Zm0.1-.42,0,0.16,0.08,0,0-.16Zm0.38-1.12,0,0.16,0.08,0,0-.16Zm0-5.12,0.08,0,0,0.16-0.08,0ZM75.7,28.4l0,0.24,0.08,0,0-.24Zm0.18,3,0,0.24H76l0-.24H75.88Zm0,2a0.15,0.15,0,0,0,.14.12h0l0-.16Zm0-.34v0.08l0.16,0V33Zm2.32-6.88a4.73,4.73,0,0,1-.74.94,0.05,0.05,0,0,0-.06-0.06h0a0.45,0.45,0,0,1,0,.14,0.75,0.75,0,0,1-.16.44v0.08l0.16,0,0.14-.1,0,0.08L77,28.76v0a7.16,7.16,0,0,1-.3,1.08l0,0.24-0.24,0,0,0.14,0.14-.1h0.08l0,0.06v0a0.37,0.37,0,0,1-.2.26,0.07,0.07,0,0,0-.06-0.06h0l-0.06.18,0,0.08,0.14-.12,0,0.16a23.78,23.78,0,0,1-.34,2.74,0.66,0.66,0,0,1-.24.12l0.06,0.32,0.14-.12h0.08l0,0.16a1.39,1.39,0,0,1,.42-0.32l0.26,0a3.85,3.85,0,0,1,.6-0.76l0.16,0,0,0.08a0.41,0.41,0,0,1-.36.38l0,0.16,0.08,0a1.39,1.39,0,0,0,.52-0.74l-0.16,0,0-.08v0a0.37,0.37,0,0,1,.2-0.26,0.14,0.14,0,0,0,.12.12h0.06l0,0.18,0.08,0a1.53,1.53,0,0,0,.36-0.66v0l0.16,0,0.06,0.4-0.08,0,0-.16-0.08,0v0a1.36,1.36,0,0,1-.24.5,0.7,0.7,0,0,1,.14.3l-0.16,0,0,0.16A1.8,1.8,0,0,0,79.14,32a1,1,0,0,0,0-.2l-0.16,0v0c0-.08.09-0.13,0.28-0.16l-0.14-.38,0.18-.36,0-.24a0.11,0.11,0,0,0,.06-0.12,0.6,0.6,0,0,0,0-.14l0.16,0.06q0-.52,0-1a11,11,0,0,1,.22-2.7,1.27,1.27,0,0,0-.84-0.68l-0.14.12Zm-2.06,5.14-0.1.26,0.08,0a0.53,0.53,0,0,1,.22-0.12,0.15,0.15,0,0,0-.14-0.12H76.18Zm-0.1,1.32,0,0.22H76.2l0-.24Zm1,0.64,0.08,0v0a0.37,0.37,0,0,1-.2.26V33.46A0.15,0.15,0,0,1,77.08,33.28ZM77,26.88L77,27l0.08,0,0-.16Zm0.24,16.34,0,0.08,0.16,0,0-.08ZM77.94,26.8L78,27l-0.14,0v0A0.13,0.13,0,0,1,77.94,26.8Zm0.26,14v0.1a0.35,0.35,0,0,1-.34.36,0.18,0.18,0,0,0,.16.12h0a1.65,1.65,0,0,0,.22-0.5v-0.1ZM78,33.62V33.7l0.16,0V33.58Zm0.32-1.44,0,0.08v0a0.14,0.14,0,0,1-.14.14l-0.08,0,0-.16A0.72,0.72,0,0,0,78.28,32.18Zm-0.16,9.6,0,0.24,0.08,0,0-.24Zm0.08-8.62a0.33,0.33,0,0,0,.2-0.26H78.32a0.15,0.15,0,0,0-.12.14v0.12Zm0.06,0.32,0,0.08a0.13,0.13,0,0,0,.12-0.14v0l0-.08a0.15,0.15,0,0,0-.12.14v0Zm0,7.78,0,0.24a0.75,0.75,0,0,1,.12.22l0.16,0,0-.24-0.16.12,0-.32H78.28ZM78.38,25l0,0.16,0.08,0,0-.14H78.38Zm0,14.52,0,0.08,0.16,0,0-.08Zm0.12,0.14-0.08.5H78.5a0.14,0.14,0,0,0,.12-0.12V40l0-.32H78.5Zm0.28,0.7v0.08a0.17,0.17,0,0,1-.12.18l0.1,0.14,0,0.08a0.3,0.3,0,0,0-.26.32V41.3l0.54-.66L79,40.5l0-.16Zm0-8,0,0.16v0a0.43,0.43,0,0,1-.2.26H78.56l0-.08v0A0.6,0.6,0,0,1,78.8,32.42ZM78.54,43.34l0,0.16L79,43.42a0.14,0.14,0,0,0-.14-0.14h0Zm0.06-7.4V36l0.16,0V35.92Zm0.1,1.6,0,0.16,0.08,0,0-.14H78.7Zm0-4.22,0,0.08,0.14,0V33.3Zm0,5.1,0,0.08,0.16,0,0-.08Zm0.1-.9,0,0.16,0.08,0,0-.16Zm0.06,1.86,0,0.16,0.08,0,0-.16Zm0,2.34,0.16,0v0a3.44,3.44,0,0,1,.28-0.76l0-.08A3,3,0,0,0,78.92,41.72Zm0,0.5,0,0.16,0.08,0,0-.16Zm0.24-3a0.94,0.94,0,0,1,0,.18,0.5,0.5,0,0,1,0,.22l0.08,0,0.06-.16,0-.24Zm0,3,0,0.3H79.3l-0.06-.32Zm0.12-5v0a0.87,0.87,0,0,1,0,.22l0.24,0,0,0.14-0.2.7,0.06,0.3h0.08l0.18-1.34-0.18,0v0a0.05,0.05,0,0,1-.06.06,0.08,0.08,0,0,0-.08-0.06h0Zm0.16,2.82a1,1,0,0,1,0,.18,0.5,0.5,0,0,1,0,.22l0.08,0,0.06-.16,0-.24Zm0,2.84,0,0.08,0.16,0,0-.08Zm0.28-8.48v0.06a0.2,0.2,0,0,1-.2.2L79.66,35l-0.18.84,0.14-.12,0,0.16v0.5l0,0.08,0.08,0a2.32,2.32,0,0,1,0-.28c0-.25,0-0.39.14-0.4L80,35.86v0a1.07,1.07,0,0,1,.1-0.38l-0.16,0,0,0.16-0.08,0-0.18-.06q0.08-.78.08-1V34.52l0-.08Zm-0.2,2.62,0.16,0V36.58A0.5,0.5,0,0,0,79.52,37.08Zm0.06,4.22v0.08a0.4,0.4,0,0,1,.12.22l0.08,0V41.5a0.4,0.4,0,0,1-.12-0.22Zm0-8.46,0,0.16h0.08l0-.16H79.62Zm0.12,7.94v0a1.06,1.06,0,0,1-.1.38l0.16,0A0.5,0.5,0,0,0,80,40.72Zm0,1.78a1.12,1.12,0,0,1,0,.26l0.14,0,0-.24H79.72Zm0-3.48,0,0.16,0.08,0,0-.16Zm0,3.9,0,0.24,0.08,0,0-.24Zm0-15.26,0,0.16,0.08,0,0-.16Zm0,10.06,0,0.16,0.08,0,0-.16Zm0.34,2.06a3.21,3.21,0,0,0-.2.74v0l0.34-.38-0.1-.16,0-.16,0.16,0,0-.08ZM79.92,38l0,0.22a0.55,0.55,0,0,1,.3-0.12l0-.16ZM80,36l0,0.14h0.08l0-.16Zm0,1.28a0.34,0.34,0,0,1,0,.14,3.28,3.28,0,0,1-.06.52l0.16,0,0-.24a0.6,0.6,0,0,1,0-.14,0.53,0.53,0,0,1,0-.2l0-.08Zm0.34,4.9v0.08a0.17,0.17,0,0,1-.12.18l-0.22,0a0.65,0.65,0,0,0,0,.2v0l0.16,0v0a1.12,1.12,0,0,1,.32-0.44l0-.08ZM80.1,36.66l0,0.4,0,0.08h0.08V37.08a1.93,1.93,0,0,1,.08-0.44Zm0-.48a0.73,0.73,0,0,1,.12.22l0.06,0s0-.31,0-0.82A1,1,0,0,0,80.1,36.18Zm0,6.88,0.16,0,0,0.08-0.16,0Zm0-1.3,0,0.08,0.16,0,0-.08Zm0.06-6.34,0,0.08,0.16,0,0-.08Zm0,1.88,0,0.16,0.08,0,0-.16Zm0,2.34a0.16,0.16,0,0,0,.16.14h0l0-.16Zm0.12-5a1.36,1.36,0,0,1,0,.22,1.28,1.28,0,0,1-.08.44l0.16,0V34.74l0-.16Zm0,3.48a0.44,0.44,0,0,0,0,.2,1.22,1.22,0,0,0,0,.2l0.26,0,0-.08-0.1-.14,0.14,0,0-.16h0A0.67,0.67,0,0,1,80.34,38.08Zm0-4.22,0.06,0.4,0.08,0-0.08-.4Zm0,0.48,0,0.16h0.08l0-.16H80.36Zm0,4.88,0,0.14h0.08l0-.16Zm0-.42,0,0.32,0.08,0,0-.3H80.38Zm0.18-2.3v0a1.52,1.52,0,0,1-.16.56l0.36,0.1,0-.08a0.74,0.74,0,0,1-.12-0.22l0.18,0,0.06-.5-0.08,0-0.14.1a0.05,0.05,0,0,0-.06-0.06h0Zm-0.12,4.64v0a0.87,0.87,0,0,1,0,.22l0,0.08,0.08,0v0a0.65,0.65,0,0,1,0-.2l0-.08H80.44Zm0-3.8v0.4L80.56,38l0.08,0-0.14-.38v0a0.65,0.65,0,0,1,0-.2l0-.08Zm0.14,3.22,0,0.16a0.4,0.4,0,0,1,.22-0.12l0-.08Zm0.16-6.28,0,0.24,0.16,0,0,0.08v0a0.16,0.16,0,0,1-.14.16,0.07,0.07,0,0,0-.08-0.08l0,0.16,0.16,0a1.46,1.46,0,0,0-.26.74v0.12h0a0.19,0.19,0,0,1,.16.2h0.08a0.69,0.69,0,0,1,0-.2q0-.36.08-1.28a0.55,0.55,0,0,1-.12-0.3,0.16,0.16,0,0,0-.14.16v0Zm0,5.76,0.08,0.4,0.06,0L80.82,40ZM81,31.8v0.06a0.43,0.43,0,0,1-.1.28L81,32.3v0.06a0.2,0.2,0,0,1-.2.2l0,0.08,0.24,0a7.47,7.47,0,0,0,.1-0.86v0Zm-0.2,1.74,0.06,0.32L81,33.92l0.06-.18,0-.24-0.14.1a0.08,0.08,0,0,0-.08-0.06h0Zm0,2.44v0.4a0.12,0.12,0,0,0,.12-0.12V36.2l0-.24ZM80.86,33a0.79,0.79,0,0,1,.14.38h0.08L81,33Zm0.06-1.54,0,0.06a0.16,0.16,0,0,0,.16.14h0l0-.08A0.12,0.12,0,0,0,81,31.5H80.92Zm0.08-1,0,0.42,0.18,0V30.48Zm0,7.72,0,0.14a0.13,0.13,0,0,0,.12-0.14v0Zm0,2,0,0.08,0.16,0,0-.06Zm0.22-3.94q0,0.4,0,.58V37l0,0.08,0.08,0a0.34,0.34,0,0,1,0-.14,3.24,3.24,0,0,1,.06-0.52l0-.06H81.24Zm0.7,3.14,0.16,0,0,0.16L82,39.6ZM82,38.28h0.06l0,0.16H82Zm0.32-3.86V34.5l0.16,0,0-.08Zm0.26-2.72,0,0.16,0.08,0,0-.16Zm0.16,1.44,0.16,0,0,0.08-0.16,0Zm0.08-2.86v0a0.67,0.67,0,0,1,0,.2l0.16,0,0-.24Zm0,0.48,0,0.16,0.08,0,0-.14H82.82Z"/></svg>